<?xml version="1.0" encoding="UTF-8" standalone="no"?>
<!-- Created with Inkscape (http://www.inkscape.org/) -->

<svg
   xmlns:dc="http://purl.org/dc/elements/1.1/"
   xmlns:cc="http://creativecommons.org/ns#"
   xmlns:rdf="http://www.w3.org/1999/02/22-rdf-syntax-ns#"
   xmlns:svg="http://www.w3.org/2000/svg"
   xmlns="http://www.w3.org/2000/svg"
   xmlns:sodipodi="http://sodipodi.sourceforge.net/DTD/sodipodi-0.dtd"
   xmlns:inkscape="http://www.inkscape.org/namespaces/inkscape"
   id="svg2"
   height="995.23"
   viewBox="0 0 1147.9294 995.23244"
   width="1147.9"
   version="1.1"
   inkscape:version="0.91 r13725"
   sodipodi:docname="Cobblestone.svg">
  <defs
     id="defs118" />
  <sodipodi:namedview
     pagecolor="#ffffff"
     bordercolor="#666666"
     borderopacity="1"
     objecttolerance="10"
     gridtolerance="10"
     guidetolerance="10"
     inkscape:pageopacity="0"
     inkscape:pageshadow="2"
     inkscape:window-width="1920"
     inkscape:window-height="1009"
     id="namedview116"
     showgrid="false"
     inkscape:zoom="0.70710678"
     inkscape:cx="903.31472"
     inkscape:cy="418.26109"
     inkscape:window-x="1912"
     inkscape:window-y="-8"
     inkscape:window-maximized="1"
     inkscape:current-layer="g3587" />
  <metadata
     id="metadata8">
    <rdf:RDF>
      <cc:Work
         rdf:about="">
        <dc:format>image/svg+xml</dc:format>
        <dc:type
           rdf:resource="http://purl.org/dc/dcmitype/StillImage" />
        <dc:title />
      </cc:Work>
    </rdf:RDF>
  </metadata>
  <g
     id="g3587">
    <path
       id="path3379-1"
       style="color:#000000;isolation:auto;mix-blend-mode:normal;solid-color:#000000;fill:#79a659;fill-rule:evenodd;color-rendering:auto;image-rendering:auto;shape-rendering:auto"
       d="m 0.6651,148.09 100.69,-147.35 25.74,22.202 457.75,271.52 69.2,38.06 493.05,248.56 -389.67,413.11 -49.16,-236.24 -43.999,-31.053 19.036,-2.9812 -18.646,-19.208 -10.978,2.1367 -9.9168,12.071 -1.0558,-9.935 -6.4858,-5.7594 -2.9746,5.0703 -8.8011,-3.3453 -6.6116,-15.955 -9.2717,3.8188 -10.658,-6.2367 -15.749,-10.347 -18.771,2.9073 -4.8254,-2.8975 -12.034,-17.654 0.11585,-16.857 -19.871,-6.017 -25.737,-21.972 -27.593,-19.146 2.9092,-15.988 -18.206,-10.181 -14.164,-41.085 -12.434,-10.832 -6.5271,-25.085 -14.403,-0.8705 -15.182,2.743 -38.959,-31.039 3.9087,-12.651 -31.842,-41.638 -18.607,-7.1447 -14.554,-10.753 -21.356,-15.604 -8.1653,-19.538 -20.062,-24.852 -25.29,-23.377 -40.363,-25.361 -34.446,-31.061 -50.115,-45.285 -59.813,-59.461 -14.259,20.523 z"
       inkscape:connector-curvature="0" />
    <path
       id="path4184"
       d="m 833.3534,651.8789 c 2.1784,9.8624 11.996,16.647 22.627,16.647 13.085,0 23.692,-10.607 23.692,-23.692 0,-13.085 -10.614,-24.125 -23.692,-23.692 -5.1722,0.17115 -11.01,1.9987 -17.516,-2.7062 l -637.79,-461.23 c -32.47,-23.05 -67.48,-47.89 -96.97,-71.757 -10.71,-8.667 -12.945,-18.596 -5.14,-29.763 8.3371,-11.928 25.011,-35.784 25.011,-35.784 l -22.21,-19.161 -100.7,147.34 20.798,17.92 39.065,-55.89 c 6.1957,-8.8644 18.539,-7.4454 30.027,-0.0186 35.622,23.029 70.406,47.254 104.57,72.434 l 629.85,454.41 c 5.0181,3.7653 6.6236,6.9794 8.3817,14.939 z"
       inkscape:connector-curvature="0"
       style="fill:#ffffff;fill-rule:evenodd;stroke:#000000;stroke-width:0.2" />
    <path
       id="path4896"
       d="m 102.3734,1.6421 -100.83,147.2 19.009,16.376 39.045,-55.758 c 3.3208,-4.7423 8.4132,-6.7864 13.996,-6.6016 5.5829,0.1848 11.703,2.4872 17.574,6.2832 35.643,23.043 70.447,47.281 104.63,72.473 l -0.008,-0.008 629.85,454.41 0.0156,0.0137 c 5.1729,3.8815 7.033,7.561 8.8086,15.6 2.0473,9.2689 11.371,15.76 21.52,15.76 12.472,0 22.559,-10.088 22.559,-22.561 0,-12.472 -10.101,-22.97 -22.521,-22.559 -4.9339,0.16327 -11.337,2.0534 -18.217,-2.9219 l -637.78,-461.22 -0.008,-0.006 c -32.468,-23.046 -67.493,-47.893 -97.021,-71.791 -5.4893,-4.4426 -8.9286,-9.3141 -9.9141,-14.619 -0.98546,-5.305 0.53643,-10.921 4.5586,-16.676 l 25.145,-35.803 z"
       inkscape:connector-curvature="0"
       style="fill:#666666;fill-rule:evenodd;stroke:#000000;stroke-width:0.2" />
    <path
       id="path4261"
       style="color:#000000;isolation:auto;mix-blend-mode:normal;solid-color:#000000;fill:#f5f5dc;fill-rule:evenodd;stroke:#000000;stroke-width:0.2;stroke-dashoffset:2;color-rendering:auto;image-rendering:auto;shape-rendering:auto"
       d="m 195.1234,182.5289 c -34.168,-25.18 -68.953,-49.404 -104.57,-72.434 -11.488,-7.4268 -23.83,-8.8468 -30.025,0.0176 l -24.754,35.414 59.814,59.463 50.113,45.283 z"
       inkscape:connector-curvature="0" />
    <path
       id="path4265"
       style="color:#000000;isolation:auto;mix-blend-mode:normal;solid-color:#000000;fill:#f5f5dc;fill-rule:evenodd;stroke:#000000;stroke-width:0.2;stroke-dashoffset:2;color-rendering:auto;image-rendering:auto;shape-rendering:auto"
       d="m 360.3934,449.5989 -3.9102,12.65 38.959,31.039 15.184,-2.7422 14.402,0.86914 6.5273,25.086 12.434,10.83 14.164,41.086 90.319,-130.97 -122.01,-88.027 z"
       inkscape:connector-curvature="0" />
    <path
       id="path4233"
       style="color:#000000;isolation:auto;mix-blend-mode:normal;solid-color:#000000;fill:#f5f5dc;fill-rule:evenodd;stroke:#000000;stroke-width:0.2;stroke-dashoffset:2;color-rendering:auto;image-rendering:auto;shape-rendering:auto"
       d="m 597.9134,686.5689 10.656,6.2363 9.2715,-3.8184 6.6133,15.955 8.8008,3.3457 2.9746,-5.0703 6.4844,5.7578 1.0566,9.9355 9.916,-12.07 10.979,-2.1367 86.14,-121.28 -52.54,-37.906 z"
       inkscape:connector-curvature="0" />
    <path
       style="color:#000000;isolation:auto;mix-blend-mode:normal;solid-color:#000000;fill:#f5f5dc;fill-rule:evenodd;stroke:#000000;stroke-width:0.19999488;stroke-dashoffset:2;color-rendering:auto;image-rendering:auto;shape-rendering:auto"
       d="M 654.02734,332.52148 584.82812,294.46289 127.08984,22.949219 123.57031,19.916016 98.560547,55.697266 c -7.8052,11.166713 -5.570554,21.095894 5.138673,29.763672 29.48724,23.864392 64.50053,48.704542 96.9707,71.751952 l 637.77344,461.21875 c 1.18867,0.85963 2.35593,1.50112 3.5,1.97461 l 81.22168,-111.29394 52.59082,34.18261 -96.10547,101.5293 c 0,13.08466 -10.60579,23.69141 -23.68945,23.6914 -10.63073,0 -20.44901,-6.78483 -22.62696,-16.64648 -1.75805,-7.9593 -3.36288,-11.1716 -8.38086,-14.9375 l -24.99218,-18.03125 -91.70508,139.04102 49.14844,236.23437 389.6797,-413.09961 -140.1973,-70.66797 0,0.002 -0,0 -64.08109,-32.30859 z"
       transform="matrix(1.0000256,0,0,1.0000256,0,-0.01153594)"
       id="path4221"
       inkscape:connector-curvature="0"
       sodipodi:nodetypes="ccccsccsccccsccccccccccc" />
    <path
       id="path3379-7"
       style="color:#000000;isolation:auto;mix-blend-mode:normal;solid-color:#000000;fill:#f5f5dc;fill-rule:evenodd;stroke:#000000;stroke-width:0.2;stroke-dashoffset:2;color-rendering:auto;image-rendering:auto;shape-rendering:auto"
       d="m 35.5364,145.8589 -14.074,20.137 0.05273,0.0469 z"
       inkscape:connector-curvature="0" />
    <path
       id="OL_001_CB_CB_25"
       style="color:#000000;isolation:auto;mix-blend-mode:normal;solid-color:#000000;fill:#f5f5dc;fill-rule:evenodd;stroke:#000000;stroke-width:0.2;stroke-dashoffset:2;color-rendering:auto;image-rendering:auto;shape-rendering:auto"
       d="m 145.7034,250.2689 34.447,31.062 40.363,25.361 12.248,11.322 49.886,-72.348 -87.519,-63.142 z"
       inkscape:connector-curvature="0"
       class="land" />
    <path
       id="OL_001_CB_CB_24"
       style="color:#000000;isolation:auto;mix-blend-mode:normal;solid-color:#000000;fill:#f5f5dc;fill-rule:evenodd;stroke:#000000;stroke-width:0.2;stroke-dashoffset:2;color-rendering:auto;image-rendering:auto;shape-rendering:auto"
       d="m 232.7634,318.0189 13.041,12.055 20.062,24.852 8.1641,19.537 21.355,15.605 65.024,-88.296 -77.76,-56.101 z"
       inkscape:connector-curvature="0"
       class="land" />
    <path
       id="OL_001_CB_CB_23"
       style="color:#000000;isolation:auto;mix-blend-mode:normal;solid-color:#000000;fill:#f5f5dc;fill-rule:evenodd;stroke:#000000;stroke-width:0.2;stroke-dashoffset:2;color-rendering:auto;image-rendering:auto;shape-rendering:auto"
       d="m 426.4534,349.4189 -66.05,-47.653 -65.024,88.296 14.555,10.752 18.607,7.1445 31.844,41.639 z"
       inkscape:connector-curvature="0"
       class="land" />
    <path
       id="OL_001_CB_CB_19"
       style="color:#000000;isolation:auto;mix-blend-mode:normal;solid-color:#000000;fill:#f5f5dc;fill-rule:evenodd;stroke:#000000;stroke-width:0.2;stroke-dashoffset:2;color-rendering:auto;image-rendering:auto;shape-rendering:auto"
       d="m 501.0434,613.7289 25.736,21.973 19.871,6.0176 -0.11523,16.857 104.7,-146.99 -50.825,-36.668 z"
       inkscape:connector-curvature="0"
       class="land" />
    <path
       id="OL_001_CB_CB_20"
       style="color:#000000;isolation:auto;mix-blend-mode:normal;solid-color:#000000;fill:#f5f5dc;fill-rule:evenodd;stroke:#000000;stroke-width:0.2;stroke-dashoffset:2;color-rendering:auto;image-rendering:auto;shape-rendering:auto"
       d="m 600.4034,474.9189 -51.935,-37.469 -90.319,130.97 18.207,10.182 -2.9102,15.986 27.594,19.146 z"
       inkscape:connector-curvature="0"
       class="land" />
    <path
       id="OL_001_CB_CB_18"
       style="color:#000000;isolation:auto;mix-blend-mode:normal;solid-color:#000000;fill:#f5f5dc;fill-rule:evenodd;stroke:#000000;stroke-width:0.2;stroke-dashoffset:2;color-rendering:auto;image-rendering:auto;shape-rendering:auto"
       d="m 546.5334,658.5789 12.033,17.652 4.8262,2.8984 18.77,-2.9082 15.75,10.348 100.35,-141.05 -47.036,-33.935 z"
       inkscape:connector-curvature="0"
       class="land" />
    <path
       id="OL_001_CB_CB_16"
       style="color:#000000;isolation:auto;mix-blend-mode:normal;solid-color:#000000;fill:#f5f5dc;fill-rule:evenodd;stroke:#000000;stroke-width:0.2;stroke-dashoffset:2;color-rendering:auto;image-rendering:auto;shape-rendering:auto"
       d="m 664.6634,704.6989 18.646,19.207 -19.035,2.9824 43.998,31.053 91.71,-139.04 -49.179,-35.481 z"
       inkscape:connector-curvature="0"
       class="land" />
    <path
       id="OL_001_CB_CB_12"
       style="color:#000000;isolation:auto;mix-blend-mode:normal;solid-color:#000000;fill:#f5f5dc;fill-rule:evenodd;stroke:#000000;stroke-width:0.2;stroke-dashoffset:2;color-rendering:auto;image-rendering:auto;shape-rendering:auto"
       d="m 923.1834,509.1089 -81.221,111.3 c 5.1177,2.118 9.7892,0.87219 14.016,0.73231 13.078,-0.43274 23.691,10.607 23.691,23.691 l 96.106,-101.54 z"
       inkscape:connector-curvature="0"
       class="land" />
    <path
       id="IL_001_CB_CB_25"
       style="color:#000000;isolation:auto;mix-blend-mode:normal;solid-color:#000000;fill:#d3f6d4;fill-rule:evenodd;stroke:#000000;stroke-width:0.2;stroke-dashoffset:2;color-rendering:auto;image-rendering:auto;shape-rendering:auto"
       d="m 147.6934,250.0589 c 11.53,10.309 22.876,20.838 34.628,30.885 13.072,8.2101 26.144,16.42 39.216,24.63 3.6628,3.3835 7.3255,6.7669 10.988,10.15 16.014,-23.227 32.027,-46.454 48.041,-69.682 -28.372,-20.481 -56.745,-40.962 -85.117,-61.443 l -47.756,65.459 z"
       inkscape:connector-curvature="0"
       class="land" />
    <path
       id="IL_001_CB_CB_24"
       style="color:#000000;isolation:auto;mix-blend-mode:normal;solid-color:#000000;fill:#d3f6d4;fill-rule:evenodd;stroke:#000000;stroke-width:0.2;stroke-dashoffset:2;color-rendering:auto;image-rendering:auto;shape-rendering:auto"
       d="m 234.7234,317.7889 c 5.9053,5.5158 12.185,10.732 17.015,17.268 5.1665,6.4256 10.342,12.845 15.503,19.274 2.6725,6.3952 5.345,12.79 8.0176,19.186 6.6009,4.821 13.202,9.6419 19.803,14.463 l 63.236,-85.863 -75.299,-54.344 c -16.092,23.339 -32.184,46.677 -48.275,70.016 z"
       inkscape:connector-curvature="0"
       class="land" />
    <path
       id="IL_001_CB_CB_23"
       style="color:#000000;isolation:auto;mix-blend-mode:normal;solid-color:#000000;fill:#d3f6d4;fill-rule:evenodd;stroke:#000000;stroke-width:0.2;stroke-dashoffset:2;color-rendering:auto;image-rendering:auto;shape-rendering:auto"
       d="m 297.4634,389.7389 c 4.8497,3.419 9.378,7.335 14.562,10.257 5.9132,2.3327 11.931,4.4366 17.719,7.0555 l 30.555,39.939 c 21.368,-32.396 42.736,-64.793 64.104,-97.189 -21.225,-15.318 -42.451,-30.635 -63.676,-45.953 -21.088,28.63 -42.176,57.26 -63.264,85.891 z"
       inkscape:connector-curvature="0"
       class="land" />
    <path
       sodipodi:nodetypes="ccccccc"
       id="IL_001_CB_CB_19"
       style="color:#000000;isolation:auto;mix-blend-mode:normal;solid-color:#000000;fill:#d3f6d4;fill-rule:evenodd;stroke:#000000;stroke-width:0.2;stroke-dashoffset:2;color-rendering:auto;image-rendering:auto;shape-rendering:auto"
       d="m 503.0634,613.4989 24.447,20.859 c 6.8776,2.084 13.755,4.1676 20.633,6.252 -0.0277,4.4082 -0.0575,8.8164 -0.0859,13.225 33.688,-47.299 67.375,-94.598 101.06,-141.9 l -48.363,-34.91 c -34.03045,47.5365 -68.57373,95.79122 -97.6911,136.474 z"
       inkscape:connector-curvature="0"
       class="land" />
    <path
       sodipodi:nodetypes="ccccccc"
       id="IL_001_CB_CB_20"
       style="color:#000000;isolation:auto;mix-blend-mode:normal;solid-color:#000000;fill:#d3f6d4;fill-rule:evenodd;stroke:#000000;stroke-width:0.2;stroke-dashoffset:2;color-rendering:auto;image-rendering:auto;shape-rendering:auto"
       d="m 460.3134,567.8889 c 5.903,3.306 11.806,6.6117 17.709,9.918 -0.98145,5.3675 -1.9594,10.736 -2.9394,16.104 l 25.572,17.74 c 32.545,-45.461 65.09,-90.922 97.635,-136.38 l -49.475,-35.711 c -30.82767,44.70023 -62.11984,90.07708 -88.5016,128.329 z"
       inkscape:connector-curvature="0"
       class="land" />
    <path
       sodipodi:nodetypes="cccccccc"
       id="IL_001_CB_CB_18"
       style="color:#000000;isolation:auto;mix-blend-mode:normal;solid-color:#000000;fill:#d3f6d4;fill-rule:evenodd;stroke:#000000;stroke-width:0.2;stroke-dashoffset:2;color-rendering:auto;image-rendering:auto;shape-rendering:auto"
       d="m 548.3734,658.6089 c 3.7474,5.5032 7.4948,11.007 11.242,16.51 l 4.0644,2.4297 c 6.276,-0.96934 12.552,-1.9391 18.828,-2.9082 5.005,3.2943 10.012,6.5857 15.018,9.8789 32.874,-46.216 65.749,-92.431 98.623,-138.65 l -44.574,-32.178 c -35.94901,50.47794 -72.43842,101.71566 -103.2014,144.9176 z"
       inkscape:connector-curvature="0"
       class="land" />
    <path
       sodipodi:nodetypes="ccccccc"
       id="IL_001_CB_CB_16"
       style="color:#000000;isolation:auto;mix-blend-mode:normal;solid-color:#000000;fill:#d3f6d4;fill-rule:evenodd;stroke:#000000;stroke-width:0.2;stroke-dashoffset:2;color-rendering:auto;image-rendering:auto;shape-rendering:auto"
       d="m 666.6234,704.5589 19.789,20.379 c -6.0712,0.95733 -12.143,1.9098 -18.215,2.8652 13.221,9.3353 26.443,18.671 39.664,28.006 30.023,-45.507 60.046,-91.013 90.068,-136.52 l -46.777,-33.754 c -29.44458,41.45843 -59.33153,83.54207 -84.529,119.0238 z"
       inkscape:connector-curvature="0"
       class="land" />
    <path
       sodipodi:nodetypes="ccccccc"
       id="IL_001_CB_CB_12"
       style="color:#000000;isolation:auto;mix-blend-mode:normal;solid-color:#000000;fill:#d3f6d4;fill-rule:evenodd;stroke:#000000;stroke-width:0.2;stroke-dashoffset:2;color-rendering:auto;image-rendering:auto;shape-rendering:auto"
       d="m 844.3934,619.5989 c 5.8039,1.4128 11.869,-0.95586 17.665,0.65663 9.0356,2.0792 16.45,9.705 18.421,18.747 0.18292,0.77257 0.32731,1.5539 0.4314,2.3405 l 92.553,-97.758 -49.926,-32.455 c -27.56869,37.78276 -55.55405,76.13736 -79.1444,108.46887 z"
       inkscape:connector-curvature="0"
       class="land" />
    <text
       id="Txt_IL_001_CB_CB_12"
       style="font-size:15.00038446px;line-height:125%;font-family:sans-serif;letter-spacing:0px;word-spacing:0px;fill:#000000;"
       xml:space="preserve"
       y="582.5954"
       x="898.79785"
       line-height="125%"
       sodipodi:linespacing="125%"><tspan
         style="font-size:15.00038446px;"
         id="tspan4307"
         x="898.79785"
         y="582.5954">12</tspan></text>
    <text
       id="Txt_IL_001_CB_CB_16"
       style="font-size:15.00038446px;line-height:125%;font-family:sans-serif;letter-spacing:0px;word-spacing:0px;fill:#000000;"
       xml:space="preserve"
       y="672.31146"
       x="718.935"
       line-height="125%"
       sodipodi:linespacing="125%"><tspan
         style="font-size:15.00038446px;"
         id="tspan4311"
         x="718.935"
         y="672.31146">16</tspan></text>
    <text
       id="Txt_IL_001_CB_CB_18"
       style="font-size:15.00038446px;line-height:125%;font-family:sans-serif;letter-spacing:0px;word-spacing:0px;fill:#000000;"
       xml:space="preserve"
       y="604.55707"
       x="612.15845"
       line-height="125%"
       sodipodi:linespacing="125%"><tspan
         style="font-size:15.00038446px;"
         id="tspan4315"
         x="612.15845"
         y="604.55707">18</tspan></text>
    <text
       id="Txt_IL_001_CB_CB_19"
       style="font-size:15.00038446px;line-height:125%;font-family:sans-serif;letter-spacing:0px;word-spacing:0px;fill:#000000;"
       xml:space="preserve"
       y="572.2041"
       x="566.06549"
       line-height="125%"
       sodipodi:linespacing="125%"><tspan
         style="font-size:15.00038446px;"
         id="tspan4319"
         x="566.06549"
         y="572.2041">19</tspan></text>
    <text
       id="Txt_IL_001_CB_CB_20"
       style="font-size:15.00038446px;line-height:125%;font-family:sans-serif;letter-spacing:0px;word-spacing:0px;fill:#000000;"
       xml:space="preserve"
       y="531.03888"
       x="519.62952"
       line-height="125%"
       sodipodi:linespacing="125%"><tspan
         style="font-size:15.00038446px;"
         id="tspan4323"
         x="519.62952"
         y="531.03888">20</tspan></text>
    <text
       id="Txt_IL_001_CB_CB_23"
       style="font-size:15.00038446px;line-height:125%;font-family:sans-serif;letter-spacing:0px;word-spacing:0px;fill:#000000;"
       xml:space="preserve"
       y="375.97964"
       x="347.13129"
       line-height="125%"
       sodipodi:linespacing="125%"><tspan
         style="font-size:15.00038446px;"
         id="tspan4327"
         x="347.13129"
         y="375.97964">23</tspan></text>
    <text
       id="Txt_IL_001_CB_CB_24"
       style="font-size:15.00038446px;line-height:125%;font-family:sans-serif;letter-spacing:0px;word-spacing:0px;fill:#000000;"
       xml:space="preserve"
       y="321.08737"
       x="283.53091"
       line-height="125%"
       sodipodi:linespacing="125%"><tspan
         style="font-size:15.00038446px;"
         id="tspan4331"
         x="283.53091"
         y="321.08737">24</tspan></text>
    <text
       id="Txt_IL_001_CB_CB_25"
       style="font-size:15.00038446px;line-height:125%;font-family:sans-serif;letter-spacing:0px;word-spacing:0px;fill:#000000;"
       xml:space="preserve"
       y="255.72188"
       x="204.5713"
       line-height="125%"
       sodipodi:linespacing="125%"><tspan
         style="font-size:15.00038446px;"
         id="tspan4335"
         x="204.5713"
         y="255.72188">25</tspan></text>
    <path
       id="Star_IL_001_CB_CB_12"
       d="m 941.0434,543.4089 -4.8756,-1.6534 -4.1261,3.0791 0.0658,-5.1479 -4.2034,-2.9726 4.9163,-1.5282 1.5282,-4.9163 2.9726,4.2034 5.1479,-0.0658 -3.0791,4.1261 z"
       inkscape:connector-curvature="0"
       style="fill:#0000ff;fill-rule:evenodd"
       class="land" />
    <path
       id="Star_IL_001_CB_CB_16"
       d="m 704.2934,725.4689 -4.8756,-1.6534 -4.1261,3.0791 0.0658,-5.1479 -4.2034,-2.9726 4.9163,-1.5282 1.5282,-4.9163 2.9726,4.2034 5.1479,-0.0658 -3.0791,4.1261 z"
       inkscape:connector-curvature="0"
       style="fill:#0000ff;fill-rule:evenodd"
       class="land" />
    <path
       id="Star_IL_001_CB_CB_18"
       d="m 588.8734,660.9589 -4.8756,-1.6534 -4.1261,3.0791 0.0658,-5.1479 -4.2034,-2.9726 4.9163,-1.5282 1.5282,-4.9163 2.9726,4.2034 5.1479,-0.0658 -3.0791,4.1261 z"
       inkscape:connector-curvature="0"
       style="fill:#0000ff;fill-rule:evenodd"
       class="land" />
    <path
       id="Star_IL_001_CB_CB_19"
       d="m 547.5534,620.9189 -4.8756,-1.6534 -4.1261,3.0791 0.0658,-5.1479 -4.2034,-2.9726 4.9163,-1.5282 1.5282,-4.9163 2.9726,4.2034 5.1479,-0.0658 -3.0791,4.1261 z"
       inkscape:connector-curvature="0"
       style="fill:#0000ff;fill-rule:evenodd"
       class="land" />
    <path
       id="Star_IL_001_CB_CB_20"
       d="m 499.5134,580.1389 -4.8756,-1.6534 -4.1261,3.0791 0.0658,-5.1479 -4.2034,-2.9726 4.9163,-1.5282 1.5282,-4.9163 2.9726,4.2034 5.1479,-0.0658 -3.0791,4.1261 z"
       inkscape:connector-curvature="0"
       style="fill:#0000ff;fill-rule:evenodd"
       class="land" />
    <path
       id="Star_IL_001_CB_CB_23"
       d="m 344.4334,404.9989 -4.8756,-1.6534 -4.1261,3.0791 0.0658,-5.1479 -4.2034,-2.9726 4.9163,-1.5282 1.5282,-4.9163 2.9726,4.2034 5.1479,-0.0658 -3.0791,4.1261 z"
       inkscape:connector-curvature="0"
       style="fill:#0000ff;fill-rule:evenodd"
       class="land" />
    <path
       id="Star_IL_001_CB_CB_24"
       d="m 281.8934,351.0689 -4.8756,-1.6534 -4.1261,3.0791 0.0658,-5.1479 -4.2034,-2.9726 4.9163,-1.5282 1.5282,-4.9163 2.9726,4.2034 5.1479,-0.0658 -3.0791,4.1261 z"
       inkscape:connector-curvature="0"
       style="fill:#0000ff;fill-rule:evenodd"
       class="land" />
    <path
       id="Star_IL_001_CB_CB_25"
       d="m 201.1534,281.7189 -4.8756,-1.6534 -4.1261,3.0791 0.0658,-5.1479 -4.2034,-2.9726 4.9163,-1.5282 1.5282,-4.9163 2.9726,4.2034 5.1479,-0.0658 -3.0791,4.1261 z"
       inkscape:connector-curvature="0"
       style="fill:#0000ff;fill-rule:evenodd"
       class="land" />
    <path
       id="Cir_IL_001_CB_CB_12"
       d="m 884.5734,619.0189 c -0.96293,0.96293 -2.295,1.6417 -3.6401,1.8547 -1.345,0.21303 -2.8217,-0.0208 -4.0351,-0.63909 -1.2134,-0.61823 -2.2705,-1.6754 -2.8888,-2.8888 -0.61823,-1.2134 -0.85212,-2.69 -0.63909,-4.035 0.21303,-1.345 0.89178,-2.6772 1.8547,-3.6401 0.96293,-0.96293 2.295,-1.6417 3.6401,-1.8547 1.345,-0.21303 2.8217,0.0208 4.035,0.63908 1.2134,0.61824 2.2705,1.6754 2.8888,2.8888 0.61823,1.2134 0.85211,2.69 0.63908,4.035 -0.21303,1.345 -0.89178,2.6771 -1.8547,3.6401 z"
       inkscape:connector-curvature="0"
       style="fill:#ff0000;fill-rule:evenodd"
       class="land" />
    <path
       id="Cir_IL_001_CB_CB_16"
       d="m 768.6734,618.6589 c -0.96293,0.96293 -2.295,1.6417 -3.6401,1.8547 -1.345,0.21303 -2.8217,-0.0208 -4.0351,-0.63909 -1.2134,-0.61824 -2.2705,-1.6754 -2.8888,-2.8888 -0.61824,-1.2134 -0.85212,-2.69 -0.63909,-4.0351 0.21303,-1.345 0.89178,-2.6771 1.8547,-3.6401 0.96293,-0.96293 2.295,-1.6417 3.6401,-1.8547 1.345,-0.21303 2.8217,0.0208 4.0351,0.63909 1.2134,0.61823 2.2705,1.6754 2.8888,2.8888 0.61824,1.2134 0.85212,2.69 0.63909,4.0351 -0.21303,1.345 -0.89178,2.6771 -1.8547,3.6401 z"
       inkscape:connector-curvature="0"
       style="fill:#ff0000;fill-rule:evenodd"
       class="land" />
    <path
       id="Cir_IL_001_CB_CB_18"
       d="m 667.9634,547.8089 c -0.96293,0.96293 -2.295,1.6417 -3.6401,1.8547 -1.345,0.21303 -2.8217,-0.0208 -4.0351,-0.63909 -1.2134,-0.61823 -2.2705,-1.6754 -2.8888,-2.8888 -0.61824,-1.2134 -0.85212,-2.69 -0.63909,-4.0351 0.21303,-1.345 0.89178,-2.6771 1.8547,-3.6401 0.96293,-0.96293 2.295,-1.6417 3.6401,-1.8547 1.345,-0.21303 2.8217,0.0208 4.0351,0.63909 1.2134,0.61824 2.2705,1.6754 2.8888,2.8888 0.61824,1.2134 0.85212,2.69 0.63909,4.0351 -0.21303,1.345 -0.89178,2.6771 -1.8547,3.6401 z"
       inkscape:connector-curvature="0"
       style="fill:#ff0000;fill-rule:evenodd"
       class="land" />
    <path
       id="Cir_IL_001_CB_CB_19"
       d="m 618.9534,512.2589 c -0.96293,0.96293 -2.295,1.6417 -3.6401,1.8547 -1.345,0.21303 -2.8217,-0.0208 -4.035,-0.63909 -1.2134,-0.61823 -2.2705,-1.6754 -2.8888,-2.8888 -0.61824,-1.2134 -0.85212,-2.69 -0.63909,-4.0351 0.21303,-1.345 0.89177,-2.6771 1.8547,-3.6401 0.96293,-0.96293 2.295,-1.6417 3.6401,-1.8547 1.345,-0.21303 2.8217,0.0209 4.035,0.63909 1.2134,0.61824 2.2705,1.6754 2.8888,2.8888 0.61824,1.2134 0.85212,2.69 0.63909,4.0351 -0.21303,1.345 -0.89177,2.6771 -1.8547,3.6401 z"
       inkscape:connector-curvature="0"
       style="fill:#ff0000;fill-rule:evenodd"
       class="land" />
    <path
       id="Cir_IL_001_CB_CB_20"
       d="m 570.6734,476.4589 c -0.96293,0.96293 -2.295,1.6417 -3.6401,1.8547 -1.345,0.21303 -2.8217,-0.0208 -4.0351,-0.63909 -1.2134,-0.61823 -2.2705,-1.6754 -2.8888,-2.8888 -0.61824,-1.2134 -0.85212,-2.69 -0.63909,-4.0351 0.21303,-1.345 0.89178,-2.6771 1.8547,-3.6401 0.96293,-0.96293 2.295,-1.6417 3.6401,-1.8547 1.345,-0.21303 2.8217,0.0209 4.035,0.63909 1.2134,0.61824 2.2705,1.6754 2.8888,2.8888 0.61824,1.2134 0.85212,2.69 0.63909,4.0351 -0.21303,1.345 -0.89178,2.6771 -1.8547,3.6401 z"
       inkscape:connector-curvature="0"
       style="fill:#ff0000;fill-rule:evenodd"
       class="land" />
    <path
       id="Cir_IL_001_CB_CB_23"
       d="m 388.4734,339.4389 c -0.96293,0.96293 -2.295,1.6417 -3.6401,1.8547 -1.345,0.21303 -2.8217,-0.0208 -4.0351,-0.63909 -1.2134,-0.61823 -2.2705,-1.6754 -2.8888,-2.8888 -0.61823,-1.2134 -0.85212,-2.69 -0.63909,-4.035 0.21303,-1.345 0.89178,-2.6772 1.8547,-3.6401 0.96293,-0.96293 2.295,-1.6417 3.6401,-1.8547 1.345,-0.21303 2.8217,0.0208 4.0351,0.63909 1.2134,0.61823 2.2705,1.6754 2.8888,2.8888 0.61823,1.2134 0.85212,2.69 0.63909,4.035 -0.21303,1.345 -0.89178,2.6772 -1.8547,3.6401 z"
       inkscape:connector-curvature="0"
       style="fill:#ff0000;fill-rule:evenodd"
       class="land" />
    <path
       id="Cir_IL_001_CB_CB_24"
       d="m 316.9834,289.5489 c -0.96293,0.96293 -2.295,1.6417 -3.6401,1.8547 -1.345,0.21303 -2.8217,-0.0209 -4.035,-0.63909 -1.2134,-0.61824 -2.2705,-1.6754 -2.8888,-2.8888 -0.61824,-1.2134 -0.85212,-2.69 -0.63909,-4.0351 0.21303,-1.345 0.89177,-2.6771 1.8547,-3.6401 0.96293,-0.96293 2.295,-1.6417 3.6401,-1.8547 1.345,-0.21303 2.8217,0.0208 4.035,0.63909 1.2134,0.61823 2.2705,1.6754 2.8888,2.8888 0.61824,1.2134 0.85211,2.69 0.63908,4.0351 -0.21303,1.345 -0.89177,2.6771 -1.8547,3.6401 z"
       inkscape:connector-curvature="0"
       style="fill:#ff0000;fill-rule:evenodd"
       class="land" />
    <path
       id="Cir_IL_001_CB_CB_25"
       d="m 237.3934,231.2389 c -0.96293,0.96293 -2.295,1.6417 -3.6401,1.8547 -1.345,0.21303 -2.8217,-0.0208 -4.035,-0.63909 -1.2134,-0.61823 -2.2705,-1.6754 -2.8888,-2.8888 -0.61824,-1.2134 -0.85212,-2.69 -0.63909,-4.0351 0.21303,-1.345 0.89177,-2.6771 1.8547,-3.6401 0.96293,-0.96293 2.295,-1.6417 3.6401,-1.8547 1.345,-0.21303 2.8217,0.0209 4.035,0.63909 1.2134,0.61824 2.2705,1.6754 2.8888,2.8888 0.61824,1.2134 0.85212,2.69 0.63909,4.0351 -0.21303,1.345 -0.89177,2.6771 -1.8547,3.6401 z"
       inkscape:connector-curvature="0"
       style="fill:#ff0000;fill-rule:evenodd"
       class="land" />
    <path
       inkscape:connector-curvature="0"
       d="m 212.62431,185.90749 q -0.97792,-0.72239 -1.59533,-1.62465 -0.61153,-0.89793 -0.78441,-1.90884 -0.17288,-1.01098 0.12824,-2.10893 0.30699,-1.09356 1.13383,-2.21289 0.77027,-1.04275 1.70917,-1.66045 0.9389,-0.61769 1.98212,-0.78498 1.00227,-0.16111 2.07969,0.14307 1.08334,0.30854 2.08483,1.04833 0.55378,0.40907 0.94775,0.80026 0.40421,0.38965 0.70728,0.76831 0.31203,0.40351 0.5257,0.77989 0.22393,0.37485 0.37844,0.67109 l -1.57097,2.12669 -0.25922,-0.19148 q -0.0605,-0.26323 -0.17022,-0.64477 -0.10381,-0.37719 -0.28269,-0.8007 -0.18475,-0.42787 -0.46605,-0.83598 -0.2813,-0.40812 -0.71134,-0.72579 -0.47719,-0.35249 -1.02037,-0.51699 -0.53885,-0.17039 -1.16086,-0.0926 -0.59564,0.079 -1.2227,0.47183 -0.62116,0.39711 -1.20428,1.18651 -0.60926,0.82478 -0.78858,1.54829 -0.17342,0.72785 -0.0549,1.30709 0.12002,0.58947 0.45741,1.05724 0.34175,0.46188 0.77182,0.77957 0.41238,0.30462 0.90434,0.4768 0.49788,0.17656 0.99623,0.21689 0.41487,0.0424 0.80591,0.0307 0.39104,-0.0116 0.65454,-0.0355 l 0.23565,0.17407 -1.54922,2.09725 q -0.43871,-0.0964 -0.83489,-0.18876 -0.3962,-0.0923 -0.79573,-0.24177 -0.52145,-0.19396 -0.94634,-0.40766 -0.42491,-0.21371 -1.08475,-0.70113 z"
       id="path3468"
       style="fill:#ffffff" />
    <path
       inkscape:connector-curvature="0"
       d="m 229.29232,191.18075 q -1.54922,2.09725 -3.66487,2.44667 -2.11132,0.34355 -4.23221,-1.22314 -2.11495,-1.56229 -2.40717,-3.68132 -0.28789,-2.1249 1.26133,-4.22215 1.56229,-2.11494 3.66921,-2.45254 2.11132,-0.34355 4.22626,1.21874 2.10907,1.55795 2.40717,3.68132 0.30258,2.11747 -1.25972,4.23242 z m -4.6392,0.006 q 0.62584,-0.1569 1.18527,-0.58141 0.56378,-0.43038 1.10776,-1.1668 0.58314,-0.78942 0.80957,-1.47808 0.22644,-0.68868 0.1843,-1.24797 -0.0394,-0.57541 -0.31656,-1.02605 -0.27132,-0.44628 -0.69546,-0.75958 -0.43005,-0.31768 -0.92609,-0.44735 -0.49019,-0.12534 -1.06942,-0.007 -0.53826,0.11232 -1.15763,0.55633 -0.6091,0.44242 -1.17482,1.20827 -0.57879,0.78352 -0.81112,1.46785 -0.22209,0.68279 -0.18429,1.24797 0.0378,0.56517 0.31066,1.0217 0.27286,0.45653 0.7088,0.77855 0.43595,0.32203 0.9525,0.44864 0.5209,0.12072 1.07657,-0.0152 z"
       id="path3470"
       style="fill:#ffffff" />
    <path
       inkscape:connector-curvature="0"
       d="m 237.26507,199.69216 q -0.47,0.63626 -1.09912,0.94555 -0.62322,0.31363 -1.31464,0.31278 -0.80565,0.006 -1.55197,-0.29047 -0.74043,-0.29198 -1.69482,-0.99699 l -3.82925,-2.82863 6.47995,-8.77218 3.40511,2.51533 q 1.06045,0.78334 1.49719,1.21523 0.44263,0.43624 0.74728,1.03461 0.31362,0.62323 0.23748,1.23171 -0.0659,0.60694 -0.47061,1.15482 -0.47,0.63626 -1.16699,0.87714 -0.69264,0.23503 -1.50551,0.0534 l -0.0348,0.0471 q 0.73389,0.80618 0.83866,1.71221 0.11063,0.91034 -0.53778,1.78813 z m -0.23518,-5.74646 q 0.16102,-0.21798 0.2101,-0.51863 0.055,-0.29631 -0.14359,-0.60688 -0.17779,-0.27703 -0.54459,-0.55709 -0.35655,-0.28159 -1.02223,-0.77332 l -0.21208,-0.15666 -1.37079,1.8557 0.35347,0.26111 q 0.5361,0.39601 0.92622,0.65688 0.39009,0.26084 0.68204,0.3217 0.40644,0.0908 0.65736,-0.0516 0.25528,-0.14835 0.46416,-0.43113 z m -2.08343,3.97915 q 0.30898,-0.41828 0.3094,-0.76399 0.0106,-0.34725 -0.29549,-0.7464 -0.20853,-0.27242 -0.66958,-0.6221 -0.46106,-0.34966 -0.96771,-0.72392 l -0.49486,-0.36554 -1.61452,2.18564 0.16496,0.12185 q 0.95435,0.70498 1.37108,1.00373 0.41671,0.29875 0.8731,0.40821 0.46226,0.11383 0.7703,-0.032 0.31827,-0.14735 0.55326,-0.46547 z"
       id="path3472"
       style="fill:#ffffff" />
    <path
       inkscape:connector-curvature="0"
       d="m 246.45872,206.48345 q -0.46999,0.63625 -1.09911,0.94554 -0.62323,0.31363 -1.31465,0.31279 -0.80564,0.006 -1.55196,-0.29047 -0.74042,-0.29198 -1.69483,-0.99699 l -3.82924,-2.82863 6.47994,-8.77219 3.40512,2.51533 q 1.06044,0.78335 1.49718,1.21523 0.44264,0.43625 0.74728,1.03462 0.31363,0.62322 0.23749,1.2317 -0.0659,0.60694 -0.47062,1.15483 -0.46999,0.63625 -1.16697,0.87714 -0.69265,0.23503 -1.50551,0.0534 l -0.0348,0.0471 q 0.73388,0.80618 0.83865,1.71221 0.11063,0.91035 -0.53778,1.78813 z m -0.23517,-5.74646 q 0.16101,-0.21798 0.21009,-0.51863 0.055,-0.29632 -0.14358,-0.60689 -0.1778,-0.27703 -0.5446,-0.55708 -0.35654,-0.28159 -1.02222,-0.77332 l -0.21208,-0.15667 -1.3708,1.85571 0.35347,0.2611 q 0.53611,0.39602 0.92623,0.65688 0.39009,0.26085 0.68204,0.32171 0.40643,0.0908 0.65736,-0.0517 0.25528,-0.14835 0.46416,-0.43112 z m -2.08342,3.97915 q 0.30897,-0.41828 0.30939,-0.76399 0.0106,-0.34726 -0.29549,-0.74641 -0.20853,-0.27242 -0.66958,-0.62209 -0.46106,-0.34966 -0.96771,-0.72392 l -0.49487,-0.36556 -1.61452,2.18565 0.16496,0.12185 q 0.95435,0.70498 1.37108,1.00373 0.41671,0.29875 0.8731,0.40821 0.46227,0.11383 0.7703,-0.032 0.31828,-0.14734 0.55327,-0.46546 z"
       id="path3474"
       style="fill:#ffffff" />
    <path
       inkscape:connector-curvature="0"
       d="m 252.48549,215.08782 -6.32713,-4.6738 6.47994,-8.77218 2.26222,1.67108 -5.2265,7.07534 4.06492,3.00272 -1.25333,1.69668 z"
       id="path3476"
       style="fill:#ffffff" />
    <path
       inkscape:connector-curvature="0"
       d="m 260.18307,220.77397 -6.34483,-4.68688 6.47994,-8.77218 6.34483,4.68687 -1.25333,1.69669 -4.09435,-3.02447 -1.11839,1.51402 3.7998,2.80688 -1.25333,1.69669 -3.7998,-2.80689 -1.60145,2.16795 4.09435,3.02447 -1.25332,1.69668 z"
       id="path3478"
       style="fill:#ffffff" />
    <path
       inkscape:connector-curvature="0"
       d="m 273.59755,219.74753 -4.03547,-2.98097 -1.20544,1.63185 3.74093,2.76339 -1.25333,1.69669 -3.74093,-2.7634 -2.76773,3.7468 -2.25039,-1.66235 6.47994,-8.77218 6.28587,4.64333 -1.25333,1.69668 z"
       id="path3480"
       style="fill:#ffffff" />
    <path
       inkscape:connector-curvature="0"
       d="m 274.67736,231.48079 -5.13711,-3.79475 1.14887,-1.55528 1.43745,1.06183 4.18207,-5.66146 -1.43744,-1.06183 1.14887,-1.55528 5.13711,3.79475 -1.14887,1.55528 -1.43745,-1.06183 -4.18207,5.66146 1.43744,1.06183 -1.14887,1.55528 z"
       id="path3482"
       style="fill:#ffffff" />
    <path
       inkscape:connector-curvature="0"
       d="m 282.87363,237.53531 -6.34483,-4.68688 6.47994,-8.77218 6.34483,4.68688 -1.25333,1.69668 -4.09435,-3.02447 -1.1184,1.51402 3.79981,2.80689 -1.25333,1.69668 -3.7998,-2.80689 -1.60145,2.16795 4.09435,3.02447 -1.25332,1.69669 z"
       id="path3484"
       style="fill:#ffffff" />
    <path
       inkscape:connector-curvature="0"
       d="m 291.11011,243.61954 -6.32713,-4.67381 6.47994,-8.77218 2.26222,1.67109 -5.22649,7.07533 4.06491,3.00272 -1.25333,1.69669 z"
       id="path3486"
       style="fill:#ffffff" />
    <path
       inkscape:connector-curvature="0"
       d="m 303.98764,246.36631 q -0.90515,1.22534 -2.18286,1.78397 -1.27338,0.55276 -2.51052,0.44016 -0.92936,-0.0855 -1.80837,-0.49809 -0.87899,-0.41255 -1.92767,-1.1872 l -3.09286,-2.28468 6.47994,-8.77218 3.18126,2.34998 q 1.0722,0.79202 1.71493,1.54908 0.64709,0.75117 0.93361,1.47275 0.49815,1.22393 0.32032,2.54956 -0.16764,1.32405 -1.10761,2.59652 z m -2.32574,-1.74532 q 0.63974,-0.86603 0.77419,-1.7137 0.1447,-0.84922 -0.28191,-1.70163 -0.22138,-0.4276 -0.54312,-0.75632 -0.31149,-0.33027 -1.04202,-0.8699 l -0.57144,-0.42212 -4.05588,5.49061 0.57145,0.42213 q 0.80708,0.59618 1.23638,0.80403 0.43361,0.20192 0.93657,0.27298 0.87968,0.10347 1.60352,-0.27246 0.7282,-0.38177 1.37224,-1.25364 z"
       id="path3488"
       style="fill:#ffffff" />
    <path
       inkscape:connector-curvature="0"
       d="m 312.92394,259.73324 -6.32714,-4.6738 6.47995,-8.77218 2.26222,1.67108 -5.2265,7.07534 4.06492,3.00272 -1.25333,1.69668 z"
       id="path3490"
       style="fill:#ffffff" />
    <path
       inkscape:connector-curvature="0"
       d="m 322.39107,266.72655 -2.33879,-1.72765 0.7031,-2.2215 -3.25197,-2.4022 -1.91668,1.32503 -2.27992,-1.68416 9.72009,-6.37871 2.6039,1.92348 -3.2398,11.16565 z m -0.99558,-5.96218 1.24576,-3.94223 -3.40189,2.34952 2.15621,1.59277 z"
       id="path3492"
       style="fill:#ffffff" />
    <path
       inkscape:connector-curvature="0"
       d="m 331.64104,273.55942 -2.17978,-1.61018 0.72432,-8.77116 -4.44755,6.02084 -2.07368,-1.53181 6.47994,-8.77219 2.70405,1.99746 -0.51322,7.38821 3.7121,-5.02522 2.07368,1.53181 -6.47994,8.77218 z"
       id="path3494"
       style="fill:#ffffff" />
    <path
       inkscape:connector-curvature="0"
       d="m 340.23144,279.90508 -6.34484,-4.68687 6.47995,-8.77218 6.34483,4.68687 -1.25333,1.69669 -4.09435,-3.02447 -1.1184,1.51402 3.79981,2.80688 -1.25333,1.69669 -3.7998,-2.80689 -1.60145,2.16795 4.09435,3.02447 -1.25333,1.69668 z"
       id="path3496"
       style="fill:#ffffff" />
    <path
       inkscape:connector-curvature="0"
       d="m 643.67008,496.61455 q -0.97792,-0.72238 -1.59532,-1.62465 -0.61154,-0.89792 -0.78441,-1.90884 -0.1729,-1.01098 0.12823,-2.10893 0.30699,-1.09356 1.13383,-2.21289 0.77027,-1.04275 1.70917,-1.66045 0.93889,-0.6177 1.98212,-0.78498 1.00227,-0.16111 2.07969,0.14307 1.08334,0.30854 2.08483,1.04833 0.55377,0.40906 0.94775,0.80026 0.40421,0.38965 0.70728,0.76831 0.31202,0.4035 0.52571,0.77989 0.22392,0.37485 0.37843,0.67109 l -1.57097,2.12669 -0.25921,-0.19148 q -0.0605,-0.26324 -0.17023,-0.64478 -0.10382,-0.37718 -0.28268,-0.80069 -0.18477,-0.42787 -0.46607,-0.83599 -0.28129,-0.40812 -0.71134,-0.72579 -0.47719,-0.3525 -1.02036,-0.51698 -0.53886,-0.1704 -1.16086,-0.0926 -0.59564,0.079 -1.22271,0.47183 -0.62115,0.39712 -1.20427,1.18652 -0.60926,0.82477 -0.78858,1.54828 -0.17342,0.72785 -0.0549,1.30709 0.12001,0.58947 0.45741,1.05724 0.34175,0.46189 0.77182,0.77958 0.41238,0.30462 0.90442,0.47686 0.49788,0.17656 0.99623,0.21687 0.41487,0.0424 0.80591,0.0308 0.39103,-0.0116 0.65454,-0.0355 l 0.23565,0.17407 -1.54922,2.09725 q -0.43871,-0.0964 -0.8349,-0.18876 -0.39618,-0.0923 -0.79572,-0.24177 -0.52145,-0.19397 -0.94634,-0.40766 -0.42491,-0.21371 -1.08476,-0.70113 z"
       id="path3437"
       style="fill:#ffffff" />
    <path
       inkscape:connector-curvature="0"
       d="m 660.3381,501.88781 q -1.54923,2.09725 -3.66488,2.44667 -2.11132,0.34355 -4.23221,-1.22314 -2.11494,-1.56229 -2.40717,-3.68132 -0.28789,-2.1249 1.26133,-4.22215 1.56229,-2.11494 3.66921,-2.45254 2.11132,-0.34355 4.22626,1.21874 2.10907,1.55796 2.40717,3.68132 0.30258,2.11748 -1.25971,4.23242 z m -4.6392,0.006 q 0.62583,-0.15691 1.18527,-0.58141 0.56378,-0.43039 1.10776,-1.1668 0.58314,-0.78942 0.80957,-1.47808 0.22644,-0.68868 0.18429,-1.24797 -0.0393,-0.57542 -0.31655,-1.02605 -0.27133,-0.44628 -0.69546,-0.75958 -0.43006,-0.31768 -0.92617,-0.44741 -0.49019,-0.12534 -1.06941,-0.007 -0.53826,0.11232 -1.15764,0.55632 -0.60909,0.44243 -1.17481,1.20827 -0.57879,0.78353 -0.81112,1.46786 -0.22209,0.68278 -0.1843,1.24797 0.0378,0.56517 0.31066,1.02169 0.27286,0.45652 0.7088,0.77855 0.43594,0.32203 0.9525,0.44864 0.5209,0.12072 1.07657,-0.0152 z"
       id="path3439"
       style="fill:#ffffff" />
    <path
       inkscape:connector-curvature="0"
       d="m 668.31024,510.40003 q -0.46999,0.63625 -1.09912,0.94554 -0.62323,0.31363 -1.31465,0.31279 -0.80564,0.006 -1.55196,-0.29048 -0.74042,-0.29198 -1.69483,-0.99699 l -3.82932,-2.82869 6.47995,-8.77218 3.40511,2.51533 q 1.06044,0.78334 1.49718,1.21523 0.44265,0.43625 0.74728,1.03462 0.31363,0.62322 0.23749,1.2317 -0.0659,0.60694 -0.47062,1.15482 -0.46999,0.63626 -1.16697,0.87715 -0.69265,0.23503 -1.50551,0.0534 l -0.0348,0.0471 q 0.73388,0.80619 0.83865,1.71221 0.11063,0.91035 -0.53778,1.78813 z m -0.23518,-5.74646 q 0.16102,-0.21798 0.2101,-0.51863 0.055,-0.29631 -0.14358,-0.60688 -0.1778,-0.27704 -0.54459,-0.55708 -0.35656,-0.2816 -1.02222,-0.77333 l -0.21209,-0.15666 -1.37079,1.85571 0.35347,0.2611 q 0.5361,0.39601 0.92615,0.65682 0.39009,0.26085 0.68204,0.32171 0.40644,0.0908 0.65736,-0.0516 0.25527,-0.14836 0.46416,-0.43113 z m -2.08341,3.97915 q 0.30897,-0.41827 0.30939,-0.76399 0.0107,-0.34725 -0.29548,-0.7464 -0.20854,-0.27241 -0.66958,-0.6221 -0.46108,-0.34966 -0.96772,-0.72391 l -0.49485,-0.36555 -1.61452,2.18564 0.16494,0.12185 q 0.95436,0.70497 1.37108,1.00373 0.41673,0.29875 0.87312,0.40821 0.46226,0.11383 0.77029,-0.032 0.31828,-0.14734 0.55327,-0.46545 z"
       id="path3441"
       style="fill:#ffffff" />
    <path
       inkscape:connector-curvature="0"
       d="m 677.5039,517.19131 q -0.46999,0.63626 -1.09912,0.94554 -0.62323,0.31363 -1.31465,0.31279 -0.80564,0.006 -1.55196,-0.29047 -0.74042,-0.29198 -1.69483,-0.99699 l -3.82924,-2.82863 6.47994,-8.77219 3.40512,2.51533 q 1.06044,0.78335 1.49718,1.21524 0.44265,0.43624 0.74728,1.03461 0.31363,0.62322 0.23749,1.23171 -0.0659,0.60693 -0.47062,1.15482 -0.46999,0.63625 -1.16697,0.87715 -0.69265,0.23503 -1.50551,0.0534 l -0.0348,0.0471 q 0.73388,0.80618 0.83865,1.71221 0.11063,0.91035 -0.53778,1.78813 z m -0.23518,-5.74646 q 0.16102,-0.21797 0.2101,-0.51863 0.055,-0.2963 -0.14358,-0.60687 -0.1778,-0.27704 -0.54459,-0.55709 -0.35655,-0.28159 -1.02223,-0.77332 l -0.21208,-0.15666 -1.37079,1.8557 0.35347,0.26111 q 0.53609,0.39601 0.92614,0.65682 0.39009,0.26084 0.68205,0.32171 0.40644,0.0908 0.65736,-0.0517 0.25527,-0.14835 0.46415,-0.43113 z m -2.08342,3.97916 q 0.30898,-0.41828 0.30939,-0.764 0.0107,-0.34724 -0.29548,-0.7464 -0.20853,-0.27241 -0.66958,-0.62209 -0.46107,-0.34967 -0.96771,-0.72392 l -0.49486,-0.36555 -1.61452,2.18565 0.16496,0.12185 q 0.95435,0.70497 1.37108,1.00373 0.41672,0.29876 0.87311,0.40821 0.46227,0.11383 0.7703,-0.032 0.31827,-0.14734 0.55326,-0.46545 z"
       id="path3443"
       style="fill:#ffffff" />
    <path
       inkscape:connector-curvature="0"
       d="m 683.53126,525.79489 -6.32713,-4.67381 6.47994,-8.77218 2.26222,1.67108 -5.2265,7.07534 4.06492,3.00272 -1.25333,1.69668 z"
       id="path3445"
       style="fill:#ffffff" />
    <path
       inkscape:connector-curvature="0"
       d="m 691.22884,531.48103 -6.34483,-4.68688 6.47994,-8.77218 6.34483,4.68688 -1.25333,1.69668 -4.09435,-3.02447 -1.11839,1.51402 3.7998,2.80689 -1.25333,1.69668 -3.7998,-2.80689 -1.60145,2.16795 4.09436,3.02447 -1.25333,1.69669 z"
       id="path3447"
       style="fill:#ffffff" />
    <path
       inkscape:connector-curvature="0"
       d="m 704.64333,530.45459 -4.03548,-2.98097 -1.20544,1.63185 3.74093,2.7634 -1.25333,1.69668 -3.74093,-2.76339 -2.76773,3.74679 -2.25047,-1.6624 6.47994,-8.77219 6.28595,4.64339 -1.25333,1.69668 z"
       id="path3449"
       style="fill:#ffffff" />
    <path
       inkscape:connector-curvature="0"
       d="m 705.72313,542.18785 -5.13711,-3.79474 1.14887,-1.55528 1.43745,1.06182 4.18207,-5.66146 -1.43744,-1.06182 1.14887,-1.55528 5.13711,3.79474 -1.14887,1.55528 -1.43745,-1.06183 -4.18207,5.66146 1.43744,1.06183 -1.14887,1.55528 z"
       id="path3451"
       style="fill:#ffffff" />
    <path
       inkscape:connector-curvature="0"
       d="m 713.92744,548.24831 -6.34483,-4.68688 6.47994,-8.77218 6.34483,4.68688 -1.25332,1.69669 -4.09436,-3.02447 -1.11839,1.51401 3.7998,2.80689 -1.25333,1.69668 -3.7998,-2.80688 -1.60145,2.16795 4.09436,3.02447 -1.25333,1.69668 z"
       id="path3453"
       style="fill:#ffffff" />
    <path
       inkscape:connector-curvature="0"
       d="m 722.15589,554.3266 -6.32714,-4.6738 6.47994,-8.77219 2.26222,1.67109 -5.22649,7.07533 4.06491,3.00273 -1.25333,1.69668 z"
       id="path3455"
       style="fill:#ffffff" />
    <path
       inkscape:connector-curvature="0"
       d="m 735.03341,557.07338 q -0.90515,1.22533 -2.18285,1.78397 -1.27338,0.55276 -2.51053,0.44015 -0.92936,-0.0855 -1.80837,-0.49809 -0.879,-0.41256 -1.92767,-1.1872 l -3.09286,-2.28467 6.47994,-8.77219 3.18127,2.34998 q 1.07219,0.79202 1.71492,1.54908 0.64709,0.75118 0.93361,1.47275 0.49816,1.22393 0.32032,2.54956 -0.16765,1.32404 -1.10761,2.59652 z m -2.32574,-1.74532 q 0.63974,-0.86604 0.77419,-1.71371 0.1447,-0.84921 -0.28191,-1.70163 -0.22138,-0.4276 -0.54312,-0.75632 -0.31149,-0.33026 -1.04202,-0.86989 l -0.57144,-0.42213 -4.05588,5.49062 0.57145,0.42212 q 0.80708,0.59619 1.23637,0.80403 0.43361,0.20194 0.93658,0.27299 0.87968,0.10346 1.60352,-0.27246 0.72821,-0.38177 1.37225,-1.25364 z"
       id="path3457"
       style="fill:#ffffff" />
    <path
       inkscape:connector-curvature="0"
       d="m 743.97775,570.44625 -6.32713,-4.67381 6.47994,-8.77218 2.26222,1.67108 -5.2265,7.07534 4.06492,3.00272 -1.25333,1.69669 z"
       id="path3459"
       style="fill:#ffffff" />
    <path
       inkscape:connector-curvature="0"
       d="m 753.43684,577.43361 -2.33879,-1.72765 0.7031,-2.22149 -3.25196,-2.4022 -1.91669,1.32502 -2.27991,-1.68416 9.72008,-6.37871 2.6039,1.92349 -3.2398,11.16564 z m -0.99558,-5.96218 1.24576,-3.94222 -3.40189,2.34951 2.15621,1.59277 z"
       id="path3461"
       style="fill:#ffffff" />
    <path
       inkscape:connector-curvature="0"
       d="m 762.68681,584.26648 -2.17978,-1.61018 0.72432,-8.77116 -4.44755,6.02084 -2.07368,-1.53181 6.47995,-8.77218 2.70404,1.99745 -0.51313,7.38827 3.71209,-5.02522 2.07368,1.53181 -6.47994,8.77218 z"
       id="path3463"
       style="fill:#ffffff" />
    <path
       inkscape:connector-curvature="0"
       d="m 771.27721,590.61215 -6.34483,-4.68688 6.47994,-8.77218 6.34483,4.68688 -1.25333,1.69668 -4.09435,-3.02447 -1.1184,1.51402 3.79981,2.80689 -1.25333,1.69668 -3.7998,-2.80689 -1.60145,2.16795 4.09435,3.02447 -1.25333,1.69669 z"
       id="path3465"
       style="fill:#ffffff" />
    <path
       inkscape:connector-curvature="0"
       d="m 33.262045,125.02606 q 0.653936,0.44504 0.987322,1.06174 0.337485,0.61063 0.363375,1.30156 0.03701,0.80481 -0.230262,1.56202 -0.263136,0.75116 -0.930718,1.7321 l -2.678465,3.93572 -9.016099,-6.13594 2.381795,-3.49979 q 0.741758,-1.08993 1.156435,-1.54304 0.418806,-0.45918 1.004945,-0.78672 0.610629,-0.33748 1.221595,-0.28492 0.609031,0.0424 1.172152,0.42561 0.653945,0.44505 0.921603,1.13219 0.261631,0.68304 0.111599,1.50231 l 0.04844,0.033 q 0.777202,-0.7645 1.6785,-0.90421 0.905385,-0.14575 1.807574,0.46824 z m -5.733046,0.45716 q -0.224039,-0.15247 -0.526363,-0.18989 -0.298214,-0.0435 -0.60087,0.16693 -0.269955,0.18838 -0.535611,0.56572 -0.267597,0.36717 -0.733221,1.05136 l -0.148346,0.21797 1.907302,1.29803 0.247244,-0.3633 q 0.374986,-0.551 0.620579,-0.95093 0.245566,-0.39988 0.295102,-0.69397 0.07501,-0.40964 -0.07703,-0.65487 -0.158105,-0.24935 -0.448743,-0.44714 z m 4.056705,1.92802 q -0.429906,-0.29258 -0.775378,-0.27962 -0.3474,0.003 -0.734415,0.32411 -0.264137,0.21891 -0.595742,0.69313 -0.331325,0.4744 -0.685714,0.99514 l -0.34614,0.50861 2.246419,1.52881 0.115382,-0.16954 q 0.667549,-0.98089 0.950217,-1.40869 0.282668,-0.42779 0.374144,-0.88823 0.09587,-0.46632 -0.06173,-0.76848 -0.159533,-0.31234 -0.486505,-0.53486 z"
       id="path3416"
       style="fill:#ffffff" />
    <path
       inkscape:connector-curvature="0"
       d="m 39.310024,115.055 q 1.671195,1.13733 1.868927,2.76032 0.197814,1.62304 -1.14966,3.60301 -1.347475,1.97997 -2.929898,2.39146 -1.578259,0.40538 -3.243336,-0.7278 l -5.758283,-3.91881 1.590583,-2.3372 5.6251,3.82818 q 0.938481,0.63869 1.666563,0.55832 0.728026,-0.0804 1.329653,-0.96442 0.593395,-0.87193 0.423357,-1.57237 -0.165928,-0.7065 -1.140809,-1.36996 l -5.625101,-3.82818 1.590583,-2.33719 5.752249,3.91471 z"
       id="path3418"
       style="fill:#ffffff" />
    <path
       inkscape:connector-curvature="0"
       d="m 41.245518,105.78576 q -0.339083,-0.23076 -0.676055,-0.25632 -0.336981,-0.0256 -0.707007,0.21873 -0.257589,0.17021 -0.490031,0.47271 -0.238502,0.29837 -0.522833,0.71617 l -0.572804,0.84167 2.428048,1.65242 0.48625,-0.7145 q 0.37911,-0.55706 0.580082,-0.96953 0.200989,-0.4125 0.180306,-0.79867 -0.02287,-0.36994 -0.172742,-0.6314 -0.151796,-0.27163 -0.533264,-0.53124 z m 8.723132,0.62978 -1.932656,2.83984 -4.979021,0.20838 -0.72938,1.07175 3.306013,2.24992 -1.574154,2.31305 -9.0161,-6.13593 2.653766,-3.89943 q 0.543941,-0.79926 1.026235,-1.31268 0.482293,-0.51341 1.127059,-0.80993 0.648891,-0.30258 1.335212,-0.26962 0.684379,0.0228 1.410967,0.51727 0.999079,0.67992 1.311488,1.5747 0.316545,0.88874 0.149189,2.03291 l 5.911044,-0.3803 z"
       id="path3420"
       style="fill:#ffffff" />
    <path
       inkscape:connector-curvature="0"
       d="m 47.855178,96.07357 q -0.339084,-0.230764 -0.676056,-0.256322 -0.33698,-0.02556 -0.707006,0.218733 -0.257589,0.170208 -0.490031,0.472708 -0.238502,0.298376 -0.522833,0.716171 l -0.572804,0.841673 2.428047,1.652415 0.48625,-0.714492 q 0.379111,-0.557062 0.580083,-0.969534 0.200989,-0.412497 0.180306,-0.798671 -0.02287,-0.369944 -0.172742,-0.631399 -0.151796,-0.271634 -0.533265,-0.531243 z m 8.723131,0.629785 -1.932656,2.839831 -4.97902,0.208388 -0.72938,1.071746 3.306013,2.24992 -1.574155,2.31305 -9.016099,-6.135934 2.653766,-3.899426 q 0.543941,-0.799263 1.026235,-1.312678 0.482293,-0.513416 1.127059,-0.809935 0.64889,-0.30258 1.335211,-0.269617 0.68438,0.02279 1.410967,0.51727 0.999079,0.679926 1.311489,1.574705 0.316545,0.888739 0.149189,2.032904 l 5.911044,-0.380297 z"
       id="path3422"
       style="fill:#ffffff" />
    <path
       inkscape:connector-curvature="0"
       d="M 60.595685,90.798651 57.0024,96.0786 l -1.598527,-1.087882 1.005458,-1.477414 -5.818881,-3.960057 -1.005458,1.477414 -1.598526,-1.087882 3.593285,-5.279949 1.598526,1.087882 -1.005458,1.477413 5.818881,3.960057 1.005458,-1.477413 1.598527,1.087882 z"
       id="path3424"
       style="fill:#ffffff" />
    <path
       inkscape:connector-curvature="0"
       d="m 63.969706,79.744466 q 1.332078,0.90655 1.397152,2.607508 0.06306,1.69076 -1.255605,3.628403 -0.76235,1.120192 -1.524754,1.823881 -0.764349,0.693535 -1.561585,1.214094 L 58.863233,87.547213 59.036306,87.2929 q 1.065601,-0.329067 1.980097,-1.008986 0.918689,-0.685993 1.479115,-1.509479 0.144228,-0.211927 0.342818,-0.581761 0.19859,-0.369834 0.262132,-0.645526 0.07232,-0.3406 0.02422,-0.621391 -0.04399,-0.286857 -0.364902,-0.505255 -0.296698,-0.201919 -0.681699,-0.09183 -0.386927,0.09991 -0.831634,0.506015 -0.467237,0.426204 -0.957518,0.925318 -0.492222,0.488937 -0.993585,0.87416 -1.144085,0.887012 -2.115824,0.96101 -0.973677,0.06384 -1.912207,-0.574883 -1.25941,-0.857095 -1.286181,-2.523156 -0.0287,-1.676203 1.178683,-3.450323 0.605773,-0.890119 1.370598,-1.636432 0.762937,-0.756549 1.455956,-1.215097 l 2.076861,1.413414 -0.168949,0.248253 q -0.806825,0.248258 -1.637317,0.843703 -0.832396,0.585233 -1.392794,1.408678 -0.197795,0.290638 -0.353204,0.610121 -0.157351,0.309309 -0.229667,0.6499 -0.06988,0.297951 0.0024,0.595235 0.06627,0.293167 0.302412,0.453873 0.357246,0.243125 0.736436,0.102511 0.373139,-0.144732 1.045653,-0.794454 0.440838,-0.426462 0.846773,-0.814648 0.410059,-0.394247 0.938079,-0.805611 1.043709,-0.804608 1.964839,-0.895387 0.919189,-0.100919 1.851693,0.5337 z"
       id="path3426"
       style="fill:#ffffff" />
    <path
       inkscape:connector-curvature="0"
       d="m 67.964342,66.525301 q -0.339084,-0.230764 -0.676056,-0.256321 -0.33698,-0.02556 -0.707006,0.218733 -0.257589,0.170208 -0.490031,0.472708 -0.238502,0.298376 -0.522833,0.71617 l -0.572804,0.841673 2.428047,1.652415 0.48625,-0.714492 q 0.379111,-0.557062 0.580083,-0.969534 0.200989,-0.412497 0.180306,-0.798671 -0.02287,-0.369944 -0.172742,-0.631399 Q 68.34576,66.78495 67.964291,66.52534 Z m 8.723131,0.629785 -1.932656,2.839831 -4.97902,0.208388 -0.72938,1.071747 3.306013,2.249917 -1.574154,2.313052 -9.0161,-6.135934 2.653766,-3.899425 q 0.543941,-0.799264 1.026235,-1.312679 0.482293,-0.513415 1.127059,-0.809935 0.648896,-0.302588 1.335211,-0.269616 0.68438,0.02279 1.410967,0.517269 0.999079,0.679926 1.311489,1.574705 0.316545,0.888739 0.149189,2.032904 l 5.911044,-0.380297 z"
       id="path3428"
       style="fill:#ffffff" />
    <path
       inkscape:connector-curvature="0"
       d="m 78.848826,54.290878 q 2.155563,1.466975 2.586515,3.567528 0.424918,2.096446 -1.058599,4.276315 -1.479353,2.173752 -3.585491,2.54768 -2.112173,0.369822 -4.267737,-1.097153 -2.173751,-1.479353 -2.592551,-3.571636 -0.424917,-2.096446 1.054436,-4.270198 1.475246,-2.167716 3.585492,-2.54768 2.104183,-0.384209 4.277935,1.095144 z m 0.185264,4.635481 q -0.18097,-0.619291 -0.626799,-1.1619 -0.451856,-0.54671 -1.20875,-1.061817 -0.811374,-0.552183 -1.508266,-0.751815 -0.696916,-0.199648 -1.254156,-0.13591 -0.573459,0.06157 -1.013038,0.355985 -0.435452,0.288373 -0.732122,0.724298 -0.300816,0.442017 -0.411209,0.942695 -0.106298,0.49466 0.03448,1.068876 0.133046,0.533513 0.60066,1.135256 0.465644,0.591536 1.25278,1.127223 0.805315,0.54806 1.498112,0.753759 0.690857,0.195525 1.254157,0.135911 0.563283,-0.05962 1.008913,-0.349925 0.445631,-0.290301 0.75056,-0.738362 0.304934,-0.448068 0.411476,-0.969125 0.100495,-0.525184 -0.05677,-1.075182 z"
       id="path3430"
       style="fill:#ffffff" />
    <path
       inkscape:connector-curvature="0"
       d="m 90.227755,47.257489 -1.63593,2.403824 -2.247,-0.61669 -2.274673,3.342389 1.39813,1.864013 -1.594746,2.34331 -6.749697,-9.46617 1.82137,-2.676308 11.282501,2.805698 z m -5.919199,1.225338 -3.987425,-1.092423 2.479266,3.308502 1.508215,-2.216161 z"
       id="path3432"
       style="fill:#ffffff" />
    <path
       inkscape:connector-curvature="0"
       d="m 92.418317,34.369734 q 1.25941,0.857095 1.867018,2.112246 0.601573,1.251044 0.536885,2.491619 -0.04953,0.931966 -0.427805,1.826266 -0.378268,0.894292 -1.111784,1.972115 l -2.163386,3.178865 -9.016099,-6.135933 2.225218,-3.269721 q 0.749973,-1.102005 1.481618,-1.773525 0.725594,-0.675639 1.435548,-0.989847 1.203753,-0.545094 2.535256,-0.418646 1.329535,0.116328 2.637391,1.006393 z m -1.654118,2.391447 q -0.890119,-0.605773 -1.742346,-0.707348 -0.854171,-0.111765 -1.689455,0.347482 -0.418718,0.237746 -0.734752,0.571949 -0.317975,0.324027 -0.828958,1.074861 l -0.399714,0.587336 5.643288,3.840557 0.399714,-0.587336 q 0.564533,-0.829521 0.755621,-1.266537 0.185025,-0.441082 0.236569,-0.94643 0.06938,-0.883016 -0.334243,-1.591781 -0.40964,-0.712896 -1.305752,-1.322748 z"
       id="path3434"
       style="fill:#ffffff" />
  </g>
  <g
     id="layer3"
     transform="translate(-36.617 -607.38)"
     display="none">
    <path
       id="path3379"
       style="color-rendering:auto;color:#000000;isolation:auto;mix-blend-mode:normal;shape-rendering:auto;solid-color:#000000;image-rendering:auto"
       d="m37.282 755.47 100.7-147.34 25.737 22.198 457.75 271.52 69.202 38.064 493.06 248.56-389.68 413.11-49.155-236.25-43.999-31.053 19.036-2.9812-18.646-19.208-10.978 2.1367-9.9168 12.071-1.0558-9.935-6.4858-5.7594-2.9746 5.0703-8.8011-3.3453-6.6116-15.955-9.2717 3.8188-10.658-6.2367-15.749-10.347-18.771 2.9073-4.8254-2.8975-12.034-17.654 0.11585-16.857-19.871-6.017-25.737-21.972-27.593-19.146 2.9092-15.988-18.206-10.181-14.164-41.085-12.434-10.832-6.5271-25.085-14.403-0.8705-15.182 2.743-38.959-31.039 3.9087-12.651-31.842-41.638-18.607-7.1447-14.554-10.753-21.356-15.604-8.1653-19.538-20.062-24.852-25.29-23.377-40.363-25.361-34.446-31.061-50.115-45.285-59.813-59.461-14.259 20.523z"
       stroke-dashoffset="2"
       display="inline"
       stroke="#000"
       fill="none" />
  </g>
  <style
     type="text/css"
     id="style107">
        text{
          pointer-events:none;
          -webkit-user-select: none;
          -moz-user-select: none;
          -khtml-user-select: none;
          -ms-user-select: none;
        }
        .land{fill-opacity:1 !important;}
      </style>
  <pattern
     id="pattern_stripe"
     width="3"
     height="4"
     patternUnits="userSpaceOnUse"
     patternTransform="rotate(45)">
    <rect
       width="2"
       height="4"
       transform="translate(0,0)"
       fill="white"
       id="rect110" />
  </pattern>
</svg>
