<?xml version="1.0" encoding="UTF-8" standalone="no"?>
<!-- Created with Inkscape (http://www.inkscape.org/) -->

<svg
   xmlns:dc="http://purl.org/dc/elements/1.1/"
   xmlns:cc="http://creativecommons.org/ns#"
   xmlns:rdf="http://www.w3.org/1999/02/22-rdf-syntax-ns#"
   xmlns:svg="http://www.w3.org/2000/svg"
   xmlns="http://www.w3.org/2000/svg"
   xmlns:sodipodi="http://sodipodi.sourceforge.net/DTD/sodipodi-0.dtd"
   xmlns:inkscape="http://www.inkscape.org/namespaces/inkscape"
   id="svg2"
   height="987.82"
   viewBox="0 0 942.97648 987.81594"
   width="942.98"
   version="1.1"
   inkscape:version="0.91 r13725"
   sodipodi:docname="juniper groove.svg">
  <defs
     id="defs99" />
  <sodipodi:namedview
     pagecolor="#ffffff"
     bordercolor="#666666"
     borderopacity="1"
     objecttolerance="10"
     gridtolerance="10"
     guidetolerance="10"
     inkscape:pageopacity="0"
     inkscape:pageshadow="2"
     inkscape:window-width="1920"
     inkscape:window-height="1009"
     id="namedview97"
     showgrid="false"
     inkscape:zoom="0.5"
     inkscape:cx="876.9577"
     inkscape:cy="733.8209"
     inkscape:window-x="1912"
     inkscape:window-y="-8"
     inkscape:window-maximized="1"
     inkscape:current-layer="svg2" />
  <metadata
     id="metadata8">
    <rdf:RDF>
      <cc:Work
         rdf:about="">
        <dc:format>image/svg+xml</dc:format>
        <dc:type
           rdf:resource="http://purl.org/dc/dcmitype/StillImage" />
        <dc:title />
      </cc:Work>
    </rdf:RDF>
  </metadata>
  <g
     id="g3498">
    <path
       id="path3402-5"
       style="color:#000000;isolation:auto;mix-blend-mode:normal;solid-color:#000000;fill:#79a659;fill-rule:evenodd;color-rendering:auto;image-rendering:auto;shape-rendering:auto"
       d="m 942.37,3.1991 -22.93,355.97 c -3.0226,95.296 -28.845,201.09 -79.353,284.55 l -202.78,318.86 -636.43,24.63 287.48,-682.32 -5.96,-43.92 -7.89,-83.99 17.54,-134.38 610.34,-33.742 0.68,-8.2465 z"
       inkscape:connector-curvature="0" />
    <path
       id="path3367"
       style="color:#000000;isolation:auto;mix-blend-mode:normal;solid-color:#000000;fill:#ffffff;fill-rule:evenodd;stroke:#000000;stroke-width:0.23022;stroke-dashoffset:2;color-rendering:auto;image-rendering:auto;shape-rendering:auto"
       d="m 902.82,1.28 -0.5121,7.5634 -610.25,33.76 -5.5139,41.17 614.99,-37.761 -23.062,332.5 c -6.3887,118.12 -40.153,182.24 -73.16,247.85 l -216.56,336.9 48.567,-0.692 203.42,-319.88 c 42.527,-74.415 73.451,-163.01 78.674,-283.02 l 22.95,-356.31 z"
       inkscape:connector-curvature="0" />
    <path
       id="path3392"
       style="color:#000000;isolation:auto;mix-blend-mode:normal;solid-color:#000000;fill:#666666;fill-rule:evenodd;stroke:#000000;stroke-width:0.23022;stroke-dashoffset:2;color-rendering:auto;image-rendering:auto;shape-rendering:auto"
       d="m 905.11,1.41 -0.51306,7.5928 c -0.0787,1.152 -1.0032,2.0649 -2.1561,2.1291 l -610.65,33.815 -4.8288,36.249 614.43,-37.464 c 1.3785,-0.0834 2.5163,1.0639 2.4214,2.4416 l -23.063,332.5 c -6.4145,118.49 -40.408,183.14 -73.399,248.72 -0.036,0.0717 -0.0758,0.14152 -0.11916,0.20908 l -215.78,335.60002 43.561,-0.6547 203.74,-321.01002 c 42.369,-74.145 73.155,-162.31 78.363,-281.96 6e-4,-0.0158 0.001,-0.0314 0.002,-0.0472 l 23.051,-356.28 z"
       inkscape:connector-curvature="0" />
    <path
       id="path4210"
       style="color:#000000;isolation:auto;mix-blend-mode:normal;solid-color:#000000;fill:#f5f5dc;fill-rule:evenodd;stroke:#000000;stroke-width:0.23022;stroke-dashoffset:2;color-rendering:auto;image-rendering:auto;shape-rendering:auto"
       d="m 282.407,260.968 5.9556,43.922 -287.48,682.31 587.87,-23.942 48.559,-0.68761 -48.565,0.69246 216.56,-336.9 c 33.007,-65.612 66.77,-129.73 73.158,-247.85 l 9.4719,-136.56 z"
       inkscape:connector-curvature="0" />
    <path
       id="path4202"
       style="color:#000000;isolation:auto;mix-blend-mode:normal;solid-color:#000000;fill:#f5f5dc;fill-rule:evenodd;stroke:#000000;stroke-width:0.23022;stroke-dashoffset:2;color-rendering:auto;image-rendering:auto;shape-rendering:auto"
       d="m 919.437,359.218 -0.0292,0.46315 c -1.7916,41.163 -6.6107,78.631 -13.881,113.1 8.1257,-38.157 12.736,-76.646 13.91,-113.56 z"
       inkscape:connector-curvature="0" />
    <path
       id="path4200"
       style="color:#000000;isolation:auto;mix-blend-mode:normal;solid-color:#000000;fill:#f5f5dc;fill-rule:evenodd;stroke:#000000;stroke-width:0.23022;stroke-dashoffset:2;color-rendering:auto;image-rendering:auto;shape-rendering:auto"
       d="m 905.377,473.488 c -0.51425,2.4239 -1.0467,4.8247 -1.585,7.2192 0.54375,-2.4047 1.0694,-4.8112 1.585,-7.2192 z"
       inkscape:connector-curvature="0" />
    <path
       id="path4198"
       style="color:#000000;isolation:auto;mix-blend-mode:normal;solid-color:#000000;fill:#f5f5dc;fill-rule:evenodd;stroke:#000000;stroke-width:0.23022;stroke-dashoffset:2;color-rendering:auto;image-rendering:auto;shape-rendering:auto"
       d="m 902.727,485.328 c -0.27793,1.1924 -0.55699,2.3828 -0.84085,3.568 0.28522,-1.1887 0.56256,-2.3782 0.84085,-3.568 z"
       inkscape:connector-curvature="0" />
    <path
       id="path4196"
       style="color:#000000;isolation:auto;mix-blend-mode:normal;solid-color:#000000;fill:#f5f5dc;fill-rule:evenodd;stroke:#000000;stroke-width:0.23022;stroke-dashoffset:2;color-rendering:auto;image-rendering:auto;shape-rendering:auto"
       d="m 900.387,494.978 c -0.26401,1.0533 -0.5272,2.1067 -0.79588,3.1543 0.26883,-1.0508 0.53251,-2.1024 0.79588,-3.1543 z"
       inkscape:connector-curvature="0" />
    <path
       id="path4194"
       style="color:#000000;isolation:auto;mix-blend-mode:normal;solid-color:#000000;fill:#f5f5dc;fill-rule:evenodd;stroke:#000000;stroke-width:0.23022;stroke-dashoffset:2;color-rendering:auto;image-rendering:auto;shape-rendering:auto"
       d="m 898.247,503.298 c -0.46808,1.7589 -0.93743,3.518 -1.4186,5.2609 0.48035,-1.7518 0.95363,-3.5053 1.4186,-5.2609 z"
       inkscape:connector-curvature="0" />
    <path
       id="path3370-9"
       style="color:#000000;isolation:auto;mix-blend-mode:normal;solid-color:#000000;fill:#f5f5dc;fill-rule:evenodd;stroke:#000000;stroke-width:0.23022;stroke-dashoffset:2;color-rendering:auto;image-rendering:auto;shape-rendering:auto"
       d="m 896.327,510.368 c -13.716,49.064 -32.598,91.809 -54.657,130.68 23.696,-39.786 41.847,-84.503 54.657,-130.68 z"
       inkscape:connector-curvature="0" />
    <path
       id="OL_001_JR_JR_4"
       style="color:#000000;isolation:auto;mix-blend-mode:normal;solid-color:#000000;fill:#f5f5dc;fill-opacity:1;fill-rule:evenodd;stroke:#000000;stroke-width:0.23022;stroke-dashoffset:2;color-rendering:auto;image-rendering:auto;shape-rendering:auto"
       d="m 449.237,73.78 -162.56,9.9813 -12.174,93.217 7.8981,83.993 167.87,-5.2725 z"
       inkscape:connector-curvature="0"
       class="land" />
    <path
       id="OL_001_JR_JR_3"
       style="color:#000000;isolation:auto;mix-blend-mode:normal;solid-color:#000000;fill:#f5f5dc;fill-opacity:1;fill-rule:evenodd;stroke:#000000;stroke-width:0.23022;stroke-dashoffset:2;color-rendering:auto;image-rendering:auto;shape-rendering:auto"
       d="m 450.277,255.698 140.04,-4.3986 -1.448,-186.09 -139.63,8.5736 z"
       inkscape:connector-curvature="0"
       class="land" />
    <path
       id="OL_001_JR_JR_2"
       style="color:#000000;isolation:auto;mix-blend-mode:normal;solid-color:#000000;fill:#f5f5dc;fill-opacity:1;fill-rule:evenodd;stroke:#000000;stroke-width:0.23022;stroke-dashoffset:2;color-rendering:auto;image-rendering:auto;shape-rendering:auto"
       d="m 590.317,251.298 139.74,-4.39 -0.85,-190.32 -140.34,8.619 z"
       inkscape:connector-curvature="0"
       class="land" />
    <path
       id="OL_001_JR_JR_1"
       style="color:#000000;isolation:auto;mix-blend-mode:normal;solid-color:#000000;fill:#f5f5dc;fill-opacity:1;fill-rule:evenodd;stroke:#000000;stroke-width:0.23022;stroke-dashoffset:2;color-rendering:auto;image-rendering:auto;shape-rendering:auto"
       d="m 730.057,246.908 157.88,-4.96 13.59,-195.94 -172.32,10.581 z"
       inkscape:connector-curvature="0"
       class="land" />
    <path
       sodipodi:nodetypes="cccccc"
       id="IL_001_JR_JR_4"
       style="color:#000000;isolation:auto;mix-blend-mode:normal;solid-color:#000000;fill:#d3f6d4;fill-opacity:1;fill-rule:evenodd;stroke:#000000;stroke-width:0.23022;stroke-dashoffset:2;color-rendering:auto;image-rendering:auto;shape-rendering:auto"
       d="m 289.267,86.4594 c -3.9457,30.211 -7.8914,60.421 -11.837,90.632 2.539,26.967 5.0781,53.934 7.6171,80.901 l 162.36,-5.0473 -1.0342,-176.13 c -54.72432,3.359737 -110.28493,6.770467 -157.1059,9.6443 z"
       inkscape:connector-curvature="0"
       class="land" />
    <path
       sodipodi:nodetypes="ccccc"
       id="IL_001_JR_JR_3"
       style="color:#000000;isolation:auto;mix-blend-mode:normal;solid-color:#000000;fill:#d3f6d4;fill-opacity:1;fill-rule:evenodd;stroke:#000000;stroke-width:0.23022;stroke-dashoffset:2;color-rendering:auto;image-rendering:auto;shape-rendering:auto"
       d="m 452.107,76.477 c 0.34473,58.748 0.68946,117.5 1.0342,176.24 l 134.31,-4.175 c -0.48263,-60.101 -0.96525,-120.2 -1.4479,-180.3 -44.62895,2.74357 -89.28042,5.492994 -133.8963,8.235 z"
       inkscape:connector-curvature="0"
       class="land" />
    <path
       sodipodi:nodetypes="ccccc"
       id="IL_001_JR_JR_2"
       style="color:#000000;isolation:auto;mix-blend-mode:normal;solid-color:#000000;fill:#d3f6d4;fill-opacity:1;fill-rule:evenodd;stroke:#000000;stroke-width:0.23022;stroke-dashoffset:2;color-rendering:auto;image-rendering:auto;shape-rendering:auto"
       d="m 591.737,67.905 c 0.48263,60.139 0.96525,120.28 1.4479,180.42 l 134.01,-4.1638 -0.84534,-184.53 C 679.45985,62.517713 631.85849,65.444673 591.737,67.905 Z"
       inkscape:connector-curvature="0"
       class="land" />
    <path
       sodipodi:nodetypes="ccccc"
       id="IL_001_JR_JR_1"
       style="color:#000000;isolation:auto;mix-blend-mode:normal;solid-color:#000000;fill:#d3f6d4;fill-opacity:1;fill-rule:evenodd;stroke:#000000;stroke-width:0.23022;stroke-dashoffset:2;color-rendering:auto;image-rendering:auto;shape-rendering:auto"
       d="m 732.077,59.287 c 0.2818,61.548 0.56358,123.1 0.84536,184.64 50.772,-1.5963 101.54,-3.1925 152.32,-4.7888 4.3991,-63.348 8.7982,-126.7 13.197,-190.04 C 840.49127,52.646149 781.67041,56.247999 732.077,59.287 Z"
       inkscape:connector-curvature="0"
       class="land" />
    <path
       id="Star_IL_001_JR_JR_1"
       d="m 825.797,227.588 -7.1289,-4.7602 -7.9628,3.174 2.3243,-8.251 -5.4793,-6.5923 8.5654,-0.33918 4.5764,-7.2482 2.9694,8.0413 8.3077,2.1126 -6.7302,5.309 z"
       inkscape:connector-curvature="0"
       style="fill:#000080;fill-opacity:1;fill-rule:evenodd"
       class="land" />
    <path
       id="Star_IL_001_JR_JR_2"
       d="m 668.207,235.948 -7.1289,-4.7602 -7.9628,3.174 2.3243,-8.251 -5.4793,-6.5923 8.5654,-0.33919 4.5764,-7.2482 2.9694,8.0414 8.3077,2.1126 -6.7302,5.309 z"
       inkscape:connector-curvature="0"
       style="fill:#000080;fill-opacity:1;fill-rule:evenodd"
       class="land" />
    <path
       id="Star_IL_001_JR_JR_3"
       d="m 527.957,241.218 -7.1289,-4.7602 -7.9628,3.174 2.3243,-8.251 -5.4793,-6.5923 8.5654,-0.33918 4.5764,-7.2482 2.9694,8.0413 8.3077,2.1126 -6.7302,5.309 z"
       inkscape:connector-curvature="0"
       style="fill:#000080;fill-opacity:1;fill-rule:evenodd"
       class="land" />
    <path
       id="Star_IL_001_JR_JR_4"
       d="m 369.757,243.208 -7.1289,-4.7602 -7.9628,3.174 2.3243,-8.251 -5.4793,-6.5923 8.5654,-0.33919 4.5764,-7.2482 2.9694,8.0413 8.3077,2.1126 -6.7302,5.309 z"
       inkscape:connector-curvature="0"
       style="fill:#000080;fill-opacity:1;fill-rule:evenodd"
       class="land" />
    <path
       id="Cir_IL_001_JR_JR_1"
       d="m 818.417,89.5279 c -1.9745,1.14 -4.423,1.6605 -6.6906,1.4221 -2.2675,-0.23831 -4.5543,-1.2565 -6.2487,-2.7821 -1.6944,-1.5256 -2.946,-3.6935 -3.42,-5.9237 -0.47404,-2.2302 -0.21238,-4.7197 0.71498,-6.8026 0.92738,-2.0829 2.6023,-3.9431 4.5769,-5.0831 1.9745,-1.14 4.423,-1.6605 6.6906,-1.4221 2.2675,0.23831 4.5543,1.2565 6.2487,2.7821 1.6944,1.5256 2.946,3.6935 3.42,5.9237 0.47404,2.2302 0.21238,4.7197 -0.71497,6.8026 -0.92738,2.0829 -2.6024,3.9431 -4.5769,5.0831 z"
       inkscape:connector-curvature="0"
       style="fill:#ff0000;fill-opacity:1;fill-rule:evenodd"
       class="land" />
    <path
       id="Cir_IL_001_JR_JR_2"
       d="m 660.477,97.4626 c -1.9745,1.14 -4.423,1.6604 -6.6906,1.4221 -2.2675,-0.23831 -4.5543,-1.2564 -6.2487,-2.7821 -1.6944,-1.5256 -2.946,-3.6935 -3.42,-5.9237 -0.47404,-2.2302 -0.21238,-4.7197 0.71497,-6.8026 0.92738,-2.0829 2.6024,-3.9431 4.5769,-5.0831 1.9745,-1.14 4.423,-1.6605 6.6906,-1.4221 2.2675,0.23831 4.5543,1.2565 6.2487,2.7821 1.6944,1.5256 2.946,3.6935 3.42,5.9237 0.47404,2.2302 0.21238,4.7197 -0.71496,6.8026 -0.92737,2.0829 -2.6024,3.9432 -4.5769,5.0831 z"
       inkscape:connector-curvature="0"
       style="fill:#ff0000;fill-opacity:1;fill-rule:evenodd"
       class="land" />
    <path
       id="Cir_IL_001_JR_JR_3"
       d="m 523.447,103.938 c -1.9745,1.14 -4.423,1.6604 -6.6906,1.4221 -2.2675,-0.23831 -4.5543,-1.2565 -6.2487,-2.7821 -1.6944,-1.5256 -2.946,-3.6935 -3.42,-5.9237 -0.47404,-2.2302 -0.21238,-4.7197 0.71497,-6.8026 0.92738,-2.0829 2.6024,-3.9431 4.5769,-5.0831 1.9745,-1.14 4.423,-1.6605 6.6906,-1.4221 2.2675,0.23831 4.5543,1.2565 6.2487,2.7821 1.6944,1.5256 2.946,3.6935 3.42,5.9237 0.47404,2.2302 0.2124,4.7197 -0.71496,6.8026 -0.92737,2.0829 -2.6023,3.9431 -4.5769,5.0831 z"
       inkscape:connector-curvature="0"
       style="fill:#ff0000;fill-opacity:1;fill-rule:evenodd"
       class="land" />
    <path
       id="Cir_IL_001_JR_JR_4"
       d="m 366.807,112.162 c -1.9746,1.14 -4.4231,1.6604 -6.6906,1.4221 -2.2675,-0.23831 -4.5543,-1.2564 -6.2487,-2.7821 -1.6944,-1.5256 -2.946,-3.6935 -3.42,-5.9237 -0.47404,-2.2302 -0.21238,-4.7197 0.71498,-6.8026 0.92738,-2.0829 2.6023,-3.9431 4.5769,-5.0831 1.9745,-1.14 4.423,-1.6605 6.6906,-1.4221 2.2675,0.23831 4.5543,1.2565 6.2487,2.7821 1.6944,1.5256 2.946,3.6935 3.42,5.9237 0.47404,2.2302 0.21238,4.7197 -0.71497,6.8026 -0.92736,2.0829 -2.6023,3.9432 -4.5769,5.0831 z"
       inkscape:connector-curvature="0"
       style="fill:#ff0000;fill-opacity:1;fill-rule:evenodd"
       class="land" />
    <text
       id="Txt_IL_001_JR_JR_1"
       style="font-size:22.49991608px;line-height:125%;font-family:sans-serif;letter-spacing:0px;word-spacing:0px;fill:#000000"
       xml:space="preserve"
       y="157.32658"
       x="807.65051"
       line-height="125%"
       sodipodi:linespacing="125%"><tspan
         style="font-size:22.49991608px"
         id="tspan4255"
         x="807.65051"
         y="157.32658">1</tspan></text>
    <text
       id="Txt_IL_001_JR_JR_2"
       style="font-size:22.49991608px;line-height:125%;font-family:sans-serif;letter-spacing:0px;word-spacing:0px;fill:#000000"
       xml:space="preserve"
       y="162.52943"
       x="650.11871"
       line-height="125%"
       sodipodi:linespacing="125%"><tspan
         style="font-size:22.49991608px"
         id="tspan4259"
         x="650.11871"
         y="162.52943">2</tspan></text>
    <text
       id="Txt_IL_001_JR_JR_3"
       style="font-size:22.49991608px;line-height:125%;font-family:sans-serif;letter-spacing:0px;word-spacing:0px;fill:#000000"
       xml:space="preserve"
       y="170.91415"
       x="511.06131"
       line-height="125%"
       sodipodi:linespacing="125%"><tspan
         style="font-size:22.49991608px"
         id="tspan4263"
         x="511.06131"
         y="170.91415">3</tspan></text>
    <text
       id="Txt_IL_001_JR_JR_4"
       style="font-size:22.49991608px;line-height:125%;font-family:sans-serif;letter-spacing:0px;word-spacing:0px;fill:#000000"
       xml:space="preserve"
       y="178.88362"
       x="354.96545"
       line-height="125%"
       sodipodi:linespacing="125%"><tspan
         style="font-size:22.49991608px"
         id="tspan4267"
         x="354.96545"
         y="178.88362">4</tspan></text>
    <path
       inkscape:connector-curvature="0"
       d="m 528.53622,51.403742 q 0.0601,0.962066 -0.23082,1.827734 -0.29151,0.855897 -0.93276,1.477392 -0.67803,0.663218 -1.66777,1.069941 -0.99029,0.396908 -2.48248,0.49007 -1.01114,0.06313 -1.9094,0.04037 -0.89764,-0.01294 -1.58361,-0.108093 l -0.1851,-2.964727 0.35341,-0.02206 q 0.48225,0.147287 1.00254,0.27249 0.51968,0.115383 1.31485,0.06574 1.03079,-0.06436 1.56336,-0.373552 0.54241,-0.30981 0.74738,-0.815374 0.19576,-0.49513 0.18966,-1.06639 -0.007,-0.581041 -0.0625,-1.474371 l -0.36345,-5.821466 -3.34759,0.208999 -0.16793,-2.689863 7.11734,-0.444355 0.6448,10.327891 z"
       id="path3455"
       style="fill:#ffffff" />
    <path
       inkscape:connector-curvature="0"
       d="m 544.81189,49.382362 q 0.16916,2.709525 -1.39003,4.255585 -1.55919,1.54606 -4.76934,1.746478 -3.21015,0.200419 -4.94954,-1.139702 -1.7295,-1.340737 -1.89805,-4.040381 l -0.58287,-9.336022 3.78932,-0.236578 0.56939,9.120043 q 0.095,1.521637 0.77969,2.227846 0.68469,0.706258 2.11794,0.616776 1.41365,-0.08826 2.01685,-0.845356 0.613,-0.757709 0.51432,-2.338291 l -0.56939,-9.120043 3.78942,-0.236585 0.58225,9.326142 z"
       id="path3457"
       style="fill:#ffffff" />
    <path
       inkscape:connector-curvature="0"
       d="m 561.96948,53.623128 -3.63233,0.226776 -6.83074,-9.646111 0.62642,10.033465 -3.45557,0.215741 -0.91261,-14.61754 4.50602,-0.281323 5.85343,8.04109 -0.52281,-8.373896 3.45558,-0.215741 0.91261,14.617539 z"
       id="path3459"
       style="fill:#ffffff" />
    <path
       inkscape:connector-curvature="0"
       d="m 573.62678,52.89533 -8.56043,0.534452 -0.1618,-2.591654 2.39533,-0.149548 -0.589,-9.434131 -2.39533,0.149547 -0.16181,-2.591654 8.56044,-0.534452 0.1618,2.591654 -2.39534,0.149548 0.589,9.434131 2.39534,-0.149547 0.1618,2.591654 z"
       id="path3461"
       style="fill:#ffffff" />
    <path
       inkscape:connector-curvature="0"
       d="m 588.15274,41.945919 q 0.0613,0.981698 -0.22347,1.945605 -0.28537,0.954066 -0.88364,1.632032 -0.81977,0.918446 -1.87208,1.427626 -1.04243,0.508574 -2.64262,0.608478 l -2.34623,0.146482 0.29726,4.76123 -3.76976,0.235357 -0.91262,-14.617539 6.20432,-0.387354 q 1.39399,-0.08703 2.36156,0.09894 0.97678,0.175546 1.74313,0.610609 0.91969,0.524041 1.43754,1.398443 0.52759,0.873742 0.60666,2.140156 z m -3.8918,0.331673 q -0.0386,-0.618476 -0.39997,-1.039397 -0.36198,-0.430742 -0.81478,-0.579867 -0.60372,-0.198838 -1.1645,-0.183535 -0.56141,0.0055 -1.49403,0.06371 l -0.64792,0.04045 0.27335,4.378375 1.0799,-0.06742 q 0.96207,-0.06007 1.57317,-0.216477 0.62093,-0.157027 1.02104,-0.536796 0.34361,-0.336825 0.47371,-0.778581 0.13932,-0.452189 0.10009,-1.080436 z"
       id="path3463"
       style="fill:#ffffff" />
    <path
       inkscape:connector-curvature="0"
       d="m 602.01152,51.123191 -10.57342,0.660128 -0.91261,-14.617539 10.57341,-0.660128 0.17652,2.827295 -6.82282,0.425968 0.15752,2.522987 6.33197,-0.395323 0.17652,2.827296 -6.33197,0.395322 0.22555,3.612666 6.82281,-0.425967 0.17652,2.827295 z"
       id="path3465"
       style="fill:#ffffff" />
    <path
       inkscape:connector-curvature="0"
       d="m 612.74625,40.272508 q -0.0343,-0.54975 -0.28462,-0.928338 -0.25031,-0.378589 -0.81416,-0.570057 -0.39267,-0.133171 -0.90499,-0.130752 -0.51294,-0.0074 -1.19034,0.03489 l -1.36455,0.08519 0.24578,3.936636 1.15844,-0.07232 q 0.90317,-0.05639 1.50634,-0.182743 0.60314,-0.126353 0.99589,-0.466241 0.37367,-0.328843 0.5277,-0.703108 0.16324,-0.384689 0.12462,-1.003165 z m 6.5135,9.774128 -4.60413,0.287449 -4.32039,-5.111223 -1.73761,0.108484 0.33464,5.360064 -3.7501,0.234129 -0.91261,-14.617539 6.32219,-0.394712 q 1.29588,-0.08091 2.23765,0.0081 0.94181,0.08903 1.78724,0.529013 0.85528,0.43937 1.38534,1.194699 0.53926,0.744895 0.61281,1.922952 0.10113,1.619846 -0.59104,2.687951 -0.68234,1.067593 -2.0341,1.832008 l 5.27014,5.958689 z"
       id="path3467"
       style="fill:#ffffff" />
    <path
       inkscape:connector-curvature="0"
       d="m 635.3722,38.859906 q -0.0343,-0.549749 -0.28464,-0.928337 -0.2503,-0.378589 -0.81415,-0.570057 -0.39267,-0.133171 -0.905,-0.130752 -0.51293,-0.0074 -1.19034,0.03489 l -1.36454,0.08519 0.24578,3.936635 1.15844,-0.07232 q 0.90317,-0.05639 1.50634,-0.182743 0.60314,-0.126353 0.99588,-0.466241 0.37369,-0.328844 0.52772,-0.703109 0.16323,-0.384689 0.12462,-1.003164 z m 6.5135,9.774128 -4.60424,0.287456 -4.32038,-5.111223 -1.73762,0.108484 0.33465,5.360064 -3.7501,0.234129 -0.91262,-14.617539 6.3222,-0.394712 q 1.29587,-0.08091 2.23765,0.0081 0.94181,0.08903 1.78724,0.529013 0.85527,0.43937 1.38533,1.194699 0.53928,0.744894 0.61282,1.922951 0.10114,1.619846 -0.59103,2.687952 -0.68236,1.067593 -2.0341,1.832007 l 5.27013,5.958689 z"
       id="path3469"
       style="fill:#ffffff" />
    <path
       inkscape:connector-curvature="0"
       d="m 657.30697,40.338692 q 0.2182,3.494895 -1.6558,5.681416 -1.8746,2.176839 -5.40872,2.397484 -3.52434,0.220034 -5.65504,-1.706743 -2.13141,-1.936552 -2.3496,-5.431347 -0.22003,-3.524338 1.65518,-5.691297 1.87461,-2.176839 5.39884,-2.396867 3.51446,-0.219417 5.65504,1.706743 2.13997,1.916279 2.36,5.440617 z m -4.76581,4.012963 q 0.50808,-0.701883 0.71675,-1.621613 0.20806,-0.929531 0.13144,-2.156681 -0.0821,-1.315439 -0.44407,-2.219242 -0.36194,-0.903804 -0.88834,-1.44255 -0.53744,-0.557765 -1.21177,-0.781752 -0.66446,-0.224612 -1.37131,-0.180482 -0.71663,0.04474 -1.33882,0.339825 -0.61236,0.294468 -1.10574,0.916591 -0.45653,0.580395 -0.71,1.571896 -0.24426,0.981067 -0.16459,2.257242 0.0815,1.305658 0.43365,2.210073 0.36132,0.893983 0.88833,1.44255 0.52702,0.548557 1.20189,0.782369 0.6749,0.233811 1.40136,0.188455 0.72647,-0.04536 1.36705,-0.361294 0.63996,-0.325761 1.09401,-0.945427 z"
       id="path3471"
       style="fill:#ffffff" />
    <path
       inkscape:connector-curvature="0"
       d="m 674.14108,46.61994 -3.89741,0.243326 -1.19562,-2.891819 -5.41895,0.33832 -0.82665,3.018075 -3.7992,0.237195 4.48678,-14.954638 4.33915,-0.270906 6.312,14.28044 z m -6.17327,-5.271479 -2.12379,-5.130132 -1.46922,5.354454 3.59301,-0.224322 z"
       id="path3473"
       style="fill:#ffffff" />
    <path
       inkscape:connector-curvature="0"
       d="m 689.61468,38.33145 q 0.12748,2.041924 -0.704,3.719996 -0.8321,1.668191 -2.20166,2.620982 -1.02957,0.714723 -2.28985,1.049643 -1.26028,0.334921 -3.00767,0.444016 l -5.15397,0.321777 -0.91261,-14.61754 5.30118,-0.330967 q 1.78672,-0.11155 3.10149,0.111878 1.31427,0.213602 2.23207,0.708203 1.56947,0.828414 2.53135,2.345225 0.97116,1.506313 1.10355,3.626784 z m -3.89915,0.213869 q -0.0901,-1.44309 -0.68396,-2.431005 -0.58466,-0.998309 -1.75958,-1.506385 -0.59698,-0.248535 -1.21179,-0.308702 -0.60558,-0.0706 -1.82291,0.0054 l -0.95226,0.05945 0.57123,9.149486 0.95226,-0.05945 q 1.34498,-0.08397 1.9659,-0.240997 0.62032,-0.166847 1.19892,-0.528193 0.99402,-0.653378 1.41379,-1.665131 0.41913,-1.021552 0.32842,-2.474473 z"
       id="path3475"
       style="fill:#ffffff" />
    <path
       inkscape:connector-curvature="0"
       d="m 900.47295,297.89201 q 0.98167,0.0618 1.90245,0.46473 0.91095,0.4023 1.50887,1.08057 0.80885,0.92808 1.18261,2.03573 0.37438,1.09779 0.27362,2.69792 l -0.14772,2.34614 4.76105,0.29979 -0.23736,3.76962 -14.617,-0.92037 0.39065,-6.20409 q 0.0878,-1.39394 0.39314,-2.3307 0.29618,-0.94719 0.82355,-1.6531 0.63481,-0.84704 1.56704,-1.2516 0.9328,-0.41434 2.19917,-0.3346 z m -0.15707,3.90282 q -0.61845,-0.0389 -1.08121,0.26701 -0.47259,0.30533 -0.67711,0.73596 -0.27268,0.57417 -0.32755,1.13245 -0.0647,0.5577 -0.12339,1.49028 l -0.0408,0.6479 4.37822,0.27568 0.068,-1.07986 q 0.0606,-0.96203 -0.0183,-1.58788 -0.0783,-0.63568 -0.40507,-1.08009 -0.29125,-0.38299 -0.7133,-0.56725 -0.43124,-0.1947 -1.05947,-0.23425 z"
       id="path3420"
       style="fill:#ffffff" />
    <path
       inkscape:connector-curvature="0"
       d="m 911.49113,282.35375 -0.24538,3.89717 -3.01851,0.82504 -0.34119,5.41875 2.89117,1.19714 -0.23921,3.79907 -14.27704,-6.31956 0.27321,-4.33899 14.95697,-4.47882 z m -6.00126,5.46646 -5.35521,1.46636 5.12899,2.12651 0.22622,-3.59287 z"
       id="path3422"
       style="fill:#ffffff" />
    <path
       inkscape:connector-curvature="0"
       d="m 900.5579,268.05848 -0.28742,4.56475 11.78961,0.74234 -0.23736,3.76962 -11.78961,-0.74234 -0.28742,4.56474 -2.82719,-0.17801 0.81222,-12.89941 2.82719,0.17801 z"
       id="path3424"
       style="fill:#ffffff" />
    <path
       inkscape:connector-curvature="0"
       d="m 901.42071,254.35567 -0.28743,4.56474 11.78961,0.74234 -0.23735,3.76963 -11.78961,-0.74234 -0.28743,4.56474 -2.82719,-0.17802 0.81222,-12.89941 2.82719,0.17802 z"
       id="path3426"
       style="fill:#ffffff" />
    <path
       inkscape:connector-curvature="0"
       d="m 914.01596,242.2553 -0.66574,10.57302 -14.617,-0.92036 0.66574,-10.57303 2.82719,0.17802 -0.42959,6.82256 2.5229,0.15886 0.39868,-6.33174 2.82719,0.17802 -0.39868,6.33173 3.61253,0.22747 0.42959,-6.82257 2.82719,0.17802 z"
       id="path3428"
       style="fill:#ffffff" />
    <path
       inkscape:connector-curvature="0"
       d="m 904.59184,230.24939 q -0.54974,-0.0346 -0.95662,0.16644 -0.40689,0.20106 -0.66729,0.73657 -0.18117,0.37296 -0.24275,0.88158 -0.0715,0.50799 -0.11412,1.18536 l -0.0859,1.3645 3.93649,0.24786 0.0729,-1.1584 q 0.0569,-0.90313 0.007,-1.51736 -0.05,-0.6142 -0.33819,-1.04632 -0.2796,-0.41183 -0.63168,-0.6114 -0.36129,-0.21001 -0.97974,-0.24895 z m 10.51112,-5.24161 -0.28989,4.60397 -5.61082,3.6481 -0.10941,1.73756 5.35987,0.33748 -0.23612,3.74996 -14.617,-0.92037 0.39807,-6.32195 q 0.0816,-1.29583 0.28756,-2.21911 0.20596,-0.92331 0.7481,-1.70716 0.54276,-0.7937 1.35838,-1.22525 0.80642,-0.44201 1.98443,-0.36783 1.61978,0.10199 2.59306,0.92215 0.974,0.81035 1.56349,2.24698 l 6.57017,-4.48457 z"
       id="path3430"
       style="fill:#ffffff" />
    <path
       inkscape:connector-curvature="0"
       d="m 911.35297,211.34798 q 2.15971,0.13598 3.39873,2.05704 1.22997,1.91056 1.03217,5.05193 -0.11435,1.81609 -0.51378,3.15103 -0.40863,1.32453 -0.97364,2.47159 l -3.50455,-0.22067 0.026,-0.4123 q 1.00613,-1.10946 1.59767,-2.52097 0.59212,-1.4213 0.67619,-2.75645 0.0216,-0.34358 -0.002,-0.90684 -0.0237,-0.56325 -0.13885,-0.92531 -0.1495,-0.44306 -0.39725,-0.73461 -0.24712,-0.30137 -0.76741,-0.33413 -0.48101,-0.0303 -0.85055,0.36038 -0.37874,0.38023 -0.61471,1.15384 -0.24826,0.81225 -0.47325,1.72447 -0.23418,0.90182 -0.54991,1.69007 -0.71502,1.80784 -1.78729,2.55834 -1.08144,0.74006 -2.60302,0.64425 -2.04185,-0.12857 -3.21283,-2.03542 -1.18024,-1.91735 -0.99914,-4.79354 0.0909,-1.44304 0.46393,-2.82893 0.36387,-1.39629 0.85089,-2.40046 l 3.36712,0.21201 -0.0253,0.40248 q -0.76243,0.839 -1.31457,2.09533 -0.56137,1.24588 -0.64543,2.58093 -0.0297,0.47121 0.009,0.94672 0.0298,0.4651 0.17935,0.90816 0.12314,0.39212 0.41015,0.68614 0.27719,0.29341 0.66004,0.31752 0.57918,0.0365 0.92113,-0.38551 0.33214,-0.42259 0.66463,-1.63355 0.21756,-0.79446 0.42099,-1.52085 0.20405,-0.73618 0.53269,-1.57293 0.65543,-1.64405 1.65768,-2.37922 0.99309,-0.74562 2.50482,-0.65044 z"
       id="path3432"
       style="fill:#ffffff" />
    <path
       inkscape:connector-curvature="0"
       d="m 909.69659,194.37039 q 3.49477,0.22005 5.43008,2.35248 1.92564,2.13181 1.70312,5.6658 -0.22191,3.52421 -2.39973,5.39755 -2.1876,1.87282 -5.68227,1.65278 -3.52421,-0.22191 -5.43996,-2.3531 -1.92563,-2.13182 -1.70374,-5.65592 0.22129,-3.51433 2.39973,-5.39755 2.16856,-1.88384 5.69277,-1.66194 z m 3.38624,5.22972 q -0.63292,-0.59177 -1.51938,-0.91369 -0.89626,-0.32254 -2.12336,-0.3998 -1.31539,-0.0828 -2.25732,0.16339 -0.94193,0.24621 -1.54221,0.7012 -0.62053,0.46356 -0.92699,1.10462 -0.30585,0.63121 -0.35035,1.33803 -0.0451,0.71661 0.16993,1.37078 0.21568,0.64433 0.7713,1.21156 0.51882,0.52545 1.47089,0.90077 0.94287,0.36489 2.219,0.44524 1.30561,0.0822 2.24692,-0.15418 0.93211,-0.24683 1.54221,-0.7012 0.61009,-0.45437 0.92636,-1.09475 0.31629,-0.6404 0.36203,-1.36684 0.0457,-0.72643 -0.18772,-1.40146 -0.24326,-0.67564 -0.80136,-1.20354 z"
       id="path3434"
       style="fill:#ffffff" />
    <path
       inkscape:connector-curvature="0"
       d="m 918.0195,178.67244 -0.22871,3.6322 -10.42374,5.57235 10.0331,0.63174 -0.21758,3.45544 -14.617,-0.92036 0.28372,-4.50587 8.70922,-4.80317 -8.37359,-0.52725 0.21758,-3.45544 14.617,0.92036 z"
       id="path3436"
       style="fill:#ffffff" />
    <path
       inkscape:connector-curvature="0"
       d="m 907.56119,156.83454 -0.42341,6.72436 2.71921,0.17122 0.3925,-6.23353 2.82719,0.17801 -0.3925,6.23354 6.24341,0.39312 -0.23611,3.74996 -14.61701,-0.92037 0.65952,-10.47422 2.82719,0.17801 z"
       id="path3438"
       style="fill:#ffffff" />
    <path
       inkscape:connector-curvature="0"
       d="m 920.36213,141.46756 -0.24539,3.89716 -3.0185,0.82505 -0.3412,5.41874 2.89118,1.19715 -0.23921,3.79907 -14.27704,-6.31956 0.27321,-4.33899 14.95696,-4.47882 z m -6.00126,5.46645 -5.35522,1.46637 5.12899,2.12651 0.22623,-3.59288 z"
       id="path3440"
       style="fill:#ffffff" />
    <path
       inkscape:connector-curvature="0"
       d="m 910.87185,130.51226 q -0.54974,-0.0346 -0.95662,0.16644 -0.40688,0.20106 -0.66728,0.73657 -0.18117,0.37296 -0.24276,0.88158 -0.0715,0.50799 -0.11411,1.18536 l -0.0859,1.3645 3.93649,0.24786 0.0729,-1.1584 q 0.0569,-0.90313 0.007,-1.51736 -0.05,-0.6142 -0.3382,-1.04632 -0.27959,-0.41182 -0.63167,-0.6114 -0.3613,-0.21001 -0.97974,-0.24895 z m 10.51113,-5.24161 -0.28989,4.60397 -5.61083,3.6481 -0.1094,1.73756 5.35986,0.33748 -0.23611,3.74996 -14.61701,-0.92036 0.39807,-6.32196 q 0.0816,-1.29583 0.28756,-2.21911 0.20597,-0.92331 0.74811,-1.70716 0.54275,-0.79369 1.35837,-1.22525 0.80642,-0.44201 1.98443,-0.36783 1.61979,0.10199 2.59307,0.92215 0.974,0.81035 1.56348,2.24698 l 6.57018,-4.48456 z"
       id="path3442"
       style="fill:#ffffff" />
    <path
       inkscape:connector-curvature="0"
       d="m 922.45199,108.2771 -0.23612,3.74996 -9.78719,-0.61625 6.1808,3.10934 -0.1638,2.60144 -6.522,2.30951 9.78718,0.61625 -0.22375,3.55365 -14.617,-0.92037 0.27567,-4.37821 7.54012,-2.82685 -7.1266,-3.74052 0.27568,-4.37822 14.617,0.92037 z"
       id="path3444"
       style="fill:#ffffff" />
    <path
       inkscape:connector-curvature="0"
       d="m 913.49515,88.849915 q -0.54974,-0.03462 -0.95662,0.166443 -0.40689,0.201057 -0.66728,0.73657 -0.18118,0.372961 -0.24276,0.881574 -0.0715,0.507991 -0.11412,1.185367 l -0.0859,1.364493 3.93649,0.247864 0.0729,-1.158402 q 0.0569,-0.903128 0.007,-1.517362 -0.05,-0.614194 -0.33819,-1.046317 -0.27959,-0.411822 -0.63168,-0.611401 -0.36129,-0.210009 -0.97973,-0.24895 z m 10.51113,-5.241607 -0.2899,4.603966 -5.61082,3.648105 -0.1094,1.737553 5.35986,0.337488 -0.23612,3.74996 -14.617,-0.920369 0.39807,-6.321958 q 0.0816,-1.295829 0.28756,-2.219108 0.20597,-0.923308 0.7481,-1.707156 0.54276,-0.793698 1.35838,-1.225255 0.80642,-0.442005 1.98443,-0.367831 1.61979,0.101991 2.59307,0.922152 0.974,0.810356 1.56348,2.246984 l 6.57018,-4.484568 z"
       id="path3446"
       style="fill:#ffffff" />
    <path
       inkscape:connector-curvature="0"
       d="m 917.6999,67.264561 q 3.49477,0.22005 5.43008,2.352475 1.92563,2.131816 1.70311,5.665805 -0.2219,3.524208 -2.39972,5.397546 -2.18761,1.872823 -5.68228,1.652779 -3.5242,-0.221904 -5.43996,-2.353098 -1.92563,-2.131815 -1.70373,-5.655923 0.22128,-3.514328 2.39972,-5.397547 2.16856,-1.883841 5.69277,-1.661937 z m 3.38624,5.229714 q -0.63293,-0.591761 -1.51938,-0.913683 -0.89626,-0.322538 -2.12337,-0.399804 -1.31539,-0.08282 -2.25732,0.163389 -0.94192,0.246214 -1.54221,0.701199 -0.62052,0.46356 -0.92698,1.104626 -0.30585,0.631206 -0.35036,1.338023 -0.0451,0.716619 0.16994,1.370784 0.21567,0.644334 0.77129,1.211559 0.51883,0.525451 1.4709,0.900771 0.94287,0.364891 2.219,0.445243 1.30561,0.08221 2.24692,-0.154184 0.93211,-0.246832 1.54221,-0.701199 0.61008,-0.454368 0.92636,-1.094746 0.31629,-0.640407 0.36203,-1.366846 0.0457,-0.726429 -0.18772,-1.401462 -0.24326,-0.67564 -0.80136,-1.203533 z"
       id="path3448"
       style="fill:#ffffff" />
    <path
       inkscape:connector-curvature="0"
       d="m 926.03637,51.351041 -0.24538,3.897168 -3.01851,0.825041 -0.34119,5.41875 2.89117,1.197147 -0.23921,3.799063 -14.27704,-6.319558 0.27321,-4.338992 14.95697,-4.478819 z m -6.00126,5.466457 -5.35521,1.466364 5.12899,2.126508 0.22622,-3.592872 z"
       id="path3450"
       style="fill:#ffffff" />
    <path
       inkscape:connector-curvature="0"
       d="m 919.74436,34.954292 q 2.04185,0.128566 3.60291,1.163137 1.55119,1.033949 2.32544,2.51179 0.58053,1.110772 0.75541,2.403011 0.17487,1.292239 0.0648,3.039573 l -0.32451,5.153775 -14.617,-0.920369 0.33378,-5.300983 q 0.1125,-1.786656 0.49841,-3.063323 0.37609,-1.277286 0.98145,-2.126119 1.01795,-1.453699 2.64304,-2.218585 1.61581,-0.7754 3.7362,-0.641888 z m -0.27483,3.895314 q -1.44304,-0.09086 -2.49739,0.374951 -1.06352,0.455375 -1.71437,1.557639 -0.32115,0.561256 -0.45764,1.163737 -0.14568,0.592014 -0.22233,1.809299 l -0.06,0.95222 9.14915,0.576083 0.06,-0.952221 q 0.0847,-1.344932 0.006,-1.980603 -0.0881,-0.636299 -0.3743,-1.255499 -0.5241,-1.067842 -1.47549,-1.6107 -0.96119,-0.543445 -2.41406,-0.634926 z"
       id="path3452"
       style="fill:#ffffff" />
    <path
       inkscape:connector-curvature="0"
       d="m 629.79589,932.34818 q 0.83182,0.52492 1.44669,1.32001 0.60648,0.78981 0.80602,1.67172 0.26484,1.20228 0.0617,2.35351 -0.19785,1.14287 -1.05349,2.49876 l -1.25456,1.98805 4.03437,2.54589 -2.01574,3.19426 -12.38599,-7.81618 3.31753,-5.25715 q 0.74538,-1.18118 1.46252,-1.85682 0.71409,-0.6892 1.51539,-1.0558 0.96319,-0.43896 1.97519,-0.34704 1.01732,0.0837 2.09033,0.76082 z m -2.00952,3.3493 q -0.52399,-0.33066 -1.07685,-0.2841 -0.56107,0.0414 -0.94706,0.3212 -0.51454,0.37315 -0.83039,0.83676 -0.32374,0.45867 -0.82242,1.24892 l -0.34646,0.54901 3.70996,2.34117 0.57744,-0.91503 q 0.51443,-0.8152 0.74533,-1.40221 0.23608,-0.5954 0.16236,-1.14209 -0.0719,-0.47573 -0.35394,-0.8398 -0.28507,-0.37761 -0.81751,-0.71361 z"
       id="path3384"
       style="fill:#ffffff" />
    <path
       inkscape:connector-curvature="0"
       d="m 646.89831,923.98473 -2.08394,3.30234 -3.04442,-0.72323 -2.89763,4.59176 1.96308,2.43677 -2.03148,3.2192 -9.49886,-12.39128 2.3202,-3.67673 15.2731,3.24108 z m -7.8875,1.91968 -5.4026,-1.28088 3.48138,4.32536 1.92122,-3.04448 z"
       id="path3386"
       style="fill:#ffffff" />
    <path
       inkscape:connector-curvature="0"
       d="m 644.17178,906.19445 -2.44091,3.86802 9.99014,6.30428 -2.01574,3.19426 -9.99014,-6.30429 -2.44092,3.86802 -2.39567,-1.51179 6.89773,-10.93055 2.39567,1.51179 z"
       id="path3388"
       style="fill:#ffffff" />
    <path
       inkscape:connector-curvature="0"
       d="m 651.49912,894.58311 -2.44091,3.86802 9.99014,6.30429 -2.01574,3.19426 -9.99014,-6.30429 -2.44092,3.86802 -2.39567,-1.51179 6.89773,-10.93055 2.39567,1.51179 z"
       id="path3390"
       style="fill:#ffffff" />
    <path
       inkscape:connector-curvature="0"
       d="m 668.34131,890.00488 -5.65373,8.95925 -12.38599,-7.81618 5.65374,-8.95925 2.39567,1.51179 -3.64824,5.78122 2.13782,1.34908 3.38578,-5.36532 2.39567,1.51179 -3.38578,5.36532 3.06114,1.93174 3.64825,-5.78123 2.39567,1.51179 z"
       id="path3393"
       style="fill:#ffffff" />
    <path
       inkscape:connector-curvature="0"
       d="m 665.87838,874.98236 q -0.46581,-0.29394 -0.91932,-0.31262 -0.45343,-0.0186 -0.93868,0.32648 -0.33784,0.24042 -0.63575,0.65722 -0.30594,0.41174 -0.66816,0.98573 l -0.72963,1.15623 3.33565,2.10497 0.61944,-0.9816 q 0.48293,-0.76528 0.73314,-1.32855 0.25019,-0.56323 0.20488,-1.08037 -0.0479,-0.49544 -0.26114,-0.83938 -0.21638,-0.35754 -0.74046,-0.68825 z m 11.73736,0.44002 -2.46189,3.90126 -6.67301,0.51117 -0.92912,1.47234 4.54178,2.8661 -2.00523,3.1776 -12.38598,-7.81619 3.38056,-5.35702 q 0.69292,-1.09805 1.31641,-1.80949 0.62342,-0.71152 1.475,-1.13946 0.85685,-0.43628 1.77954,-0.42392 0.91964,-10e-4 1.91781,0.6287 1.37256,0.86615 1.83342,2.05256 0.4662,1.17814 0.29476,2.72156 l 7.91596,-0.78523 z"
       id="path3395"
       style="fill:#ffffff" />
    <path
       inkscape:connector-curvature="0"
       d="m 680.82424,861.6042 q 1.83008,1.15487 1.99638,3.43484 0.16321,2.26631 -1.51658,4.92821 -0.97113,1.5389 -1.96168,2.5189 -0.99368,0.96642 -2.03949,1.70213 l -2.96964,-1.874 0.22046,-0.34936 q 1.41488,-0.49122 2.61072,-1.44631 1.2012,-0.96341 1.9151,-2.09469 0.18372,-0.29114 0.43303,-0.79677 0.24932,-0.50563 0.32176,-0.87863 0.0813,-0.46047 0.004,-0.83513 -0.0724,-0.38297 -0.51324,-0.66118 -0.40763,-0.25723 -0.91918,-0.0915 -0.51468,0.15208 -1.0927,0.71783 -0.60729,0.59377 -1.2421,1.28643 -0.63796,0.67909 -1.293,1.21943 -1.49429,1.24365 -2.79503,1.38817 -1.30387,0.13092 -2.59321,-0.68271 -1.7302,-1.09185 -1.8436,-3.32673 -0.11632,-2.24843 1.42167,-4.68563 0.77164,-1.22278 1.7635,-2.26013 0.98879,-1.05086 1.8977,-1.69854 l 2.85319,1.80051 -0.21522,0.34105 q -1.07135,0.3707 -2.15835,1.20841 -1.08995,0.82421 -1.80384,1.95549 -0.25197,0.39927 -0.44558,0.83538 -0.19682,0.42244 -0.27802,0.88296 -0.08,0.40313 0.0309,0.79877 0.10258,0.3904 0.42699,0.59512 0.49084,0.30974 0.9932,0.10336 0.49406,-0.2116 1.36653,-1.11485 0.57184,-0.59287 1.09866,-1.13277 0.53206,-0.54819 1.22166,-1.12492 1.36344,-1.1285 2.59549,-1.29309 1.22903,-0.17815 2.51,0.63021 z"
       id="path3397"
       style="fill:#ffffff" />
    <path
       inkscape:connector-curvature="0"
       d="m 687.52794,845.92185 q 2.96127,1.86871 3.63726,4.66803 0.6677,2.79409 -1.22204,5.78868 -1.88451,2.9863 -4.69395,3.58614 -2.81772,0.5946 -5.77899,-1.27411 -2.98631,-1.88451 -3.64564,-4.67331 -0.6677,-2.79409 1.21681,-5.78039 1.87923,-2.97793 4.6939,-3.58606 2.80629,-0.6134 5.7926,1.2711 z m 0.4641,6.213 q -0.27172,-0.8228 -0.89526,-1.53032 -0.6319,-0.7128 -1.67168,-1.36895 -1.11462,-0.70338 -2.05927,-0.93895 -0.94466,-0.23556 -1.68959,-0.12411 -0.76684,0.10926 -1.34318,0.52488 -0.57098,0.40732 -0.94893,1.00625 -0.3832,0.60724 -0.50817,1.2844 -0.11971,0.66884 0.0959,1.43303 0.20335,0.70985 0.85891,1.49574 0.65251,0.77233 1.7339,1.45473 1.10633,0.69816 2.04573,0.94204 0.93628,0.23029 1.6895,0.12406 0.75331,-0.10618 1.3379,-0.5165 0.5846,-0.41036 0.97305,-1.02592 0.38845,-0.61555 0.50725,-1.31986 0.11043,-0.70959 -0.12617,-1.4404 z"
       id="path3399"
       style="fill:#ffffff" />
    <path
       inkscape:connector-curvature="0"
       d="m 702.34166,836.12594 -1.94226,3.0778 -11.81841,-0.10733 8.50089,5.36448 -1.84774,2.92804 -12.38599,-7.81619 2.40943,-3.81812 9.94595,-0.0391 -7.0956,-4.47768 1.84774,-2.92804 12.38599,7.81619 z"
       id="path3401"
       style="fill:#ffffff" />
    <path
       inkscape:connector-curvature="0"
       d="m 703.64437,811.95069 -3.59579,5.69809 2.30417,1.45405 3.33332,-5.28218 2.39576,1.51184 -3.33332,5.28218 5.29038,3.33851 -2.00522,3.17759 -12.38599,-7.81618 5.60091,-8.87552 2.39567,1.51179 z"
       id="path3403"
       style="fill:#ffffff" />
    <path
       inkscape:connector-curvature="0"
       d="m 722.23701,804.59859 -2.084,3.30242 -3.04442,-0.72322 -2.89758,4.59168 1.96309,2.43676 -2.03148,3.2192 -9.49886,-12.39128 2.32019,-3.67672 15.27311,3.24108 z m -7.8875,1.91968 -5.4026,-1.28088 3.48138,4.32536 1.92122,-3.04448 z"
       id="path3405"
       style="fill:#ffffff" />
    <path
       inkscape:connector-curvature="0"
       d="m 719.21372,790.46405 q -0.46581,-0.29395 -0.91932,-0.31263 -0.45343,-0.0186 -0.93869,0.32649 -0.33783,0.24041 -0.63574,0.65722 -0.30594,0.41174 -0.66816,0.98572 l -0.72964,1.15623 3.33566,2.10497 0.61943,-0.98159 q 0.48294,-0.76528 0.73315,-1.32855 0.25019,-0.56323 0.20488,-1.08037 -0.0479,-0.49545 -0.26115,-0.83938 -0.21638,-0.35754 -0.74045,-0.68826 z m 11.73736,0.44002 -2.46189,3.90125 -6.67301,0.51117 -0.92913,1.47235 4.54178,2.86609 -2.00522,3.1776 -12.38598,-7.81618 3.38055,-5.35703 q 0.69292,-1.09804 1.31641,-1.80949 0.62342,-0.71152 1.47501,-1.13945 0.85685,-0.43629 1.77953,-0.42393 0.91965,-10e-4 1.91782,0.6287 1.37255,0.86616 1.83342,2.05256 0.4662,1.17814 0.29475,2.72157 l 7.91597,-0.78523 z"
       id="path3407"
       style="fill:#ffffff" />
    <path
       inkscape:connector-curvature="0"
       d="m 739.98699,776.47092 -2.00523,3.1776 -8.29335,-5.23352 3.93316,5.69218 -1.39107,2.20437 -6.83079,-1.10041 8.29335,5.23352 -1.90026,3.01125 -12.38598,-7.81618 2.34117,-3.70996 7.97231,1.13458 -4.46052,-6.69957 2.34117,-3.70996 12.38598,7.81619 z"
       id="path3409"
       style="fill:#ffffff" />
    <path
       inkscape:connector-curvature="0"
       d="m 741.48925,755.16492 q -0.46581,-0.29394 -0.91932,-0.31262 -0.45343,-0.0186 -0.93868,0.32648 -0.33784,0.24042 -0.63575,0.65723 -0.30594,0.41173 -0.66816,0.98573 l -0.72964,1.15623 3.33566,2.10496 0.61943,-0.98159 q 0.48294,-0.76529 0.73315,-1.32855 0.25018,-0.56323 0.20488,-1.08037 -0.0479,-0.49545 -0.26115,-0.83938 -0.21638,-0.35754 -0.74045,-0.68825 z m 11.73736,0.44002 -2.46194,3.90134 -6.67301,0.51117 -0.92913,1.47235 4.54179,2.86609 -2.00523,3.1776 -12.38598,-7.81618 3.38055,-5.35703 q 0.69292,-1.09804 1.31641,-1.80949 0.62342,-0.71152 1.47501,-1.13945 0.85685,-0.43628 1.77953,-0.42393 0.91966,-10e-4 1.91782,0.6287 1.37256,0.86615 1.83342,2.05255 0.4662,1.17815 0.29476,2.72157 l 7.91596,-0.78523 z"
       id="path3411"
       style="fill:#ffffff" />
    <path
       inkscape:connector-curvature="0"
       d="m 755.49714,738.21385 q 2.96127,1.86871 3.63726,4.66803 0.6677,2.79409 -1.22204,5.78868 -1.88451,2.9863 -4.69389,3.58606 -2.81773,0.5946 -5.779,-1.27411 -2.98631,-1.88451 -3.64563,-4.67331 -0.66771,-2.79409 1.21675,-5.78031 1.87922,-2.97793 4.69389,-3.58605 2.8063,-0.61341 5.7926,1.2711 z m 0.4641,6.21301 q -0.27173,-0.8228 -0.89526,-1.53032 -0.6319,-0.71281 -1.67168,-1.36896 -1.11462,-0.70338 -2.05927,-0.93895 -0.94466,-0.23556 -1.68959,-0.1241 -0.76684,0.10925 -1.34318,0.52487 -0.57098,0.40732 -0.94894,1.00625 -0.3832,0.60724 -0.50816,1.2844 -0.11971,0.66883 0.0959,1.43303 0.20334,0.70987 0.8589,1.49574 0.65252,0.77233 1.73391,1.45474 1.10633,0.69815 2.04573,0.94204 0.93628,0.23028 1.6895,0.12405 0.75331,-0.10617 1.33789,-0.5165 0.58461,-0.41035 0.97306,-1.02592 0.38844,-0.61555 0.50725,-1.31986 0.11042,-0.70958 -0.12617,-1.4404 z"
       id="path3413"
       style="fill:#ffffff" />
    <path
       inkscape:connector-curvature="0"
       d="m 770.42613,728.23527 -2.08394,3.30234 -3.04442,-0.72323 -2.89758,4.59168 1.96309,2.43676 -2.03149,3.21921 -9.49886,-12.39129 2.3202,-3.67672 15.2731,3.24108 z m -7.8875,1.91968 -5.4026,-1.28088 3.48138,4.32536 1.92122,-3.04448 z"
       id="path3415"
       style="fill:#ffffff" />
    <path
       inkscape:connector-curvature="0"
       d="m 772.77215,710.83885 q 1.7302,1.09184 2.60407,2.74823 0.86551,1.65111 0.83637,3.31924 -0.0231,1.25313 -0.48929,2.47097 -0.46617,1.21785 -1.40052,2.69848 l -2.75589,4.36715 -12.38599,-7.81619 2.83461,-4.49188 q 0.95538,-1.51396 1.90619,-2.44915 0.9424,-0.94061 1.8807,-1.39521 1.59033,-0.78762 3.38309,-0.67972 1.78985,0.0943 3.5866,1.22817 z m -2.10931,3.28633 q -1.22279,-0.77164 -2.37139,-0.8684 -1.15164,-0.11031 -2.25131,0.54492 -0.55098,0.33852 -0.95958,0.80182 -0.41171,0.44967 -1.06263,1.48116 l -0.50918,0.80688 7.7527,4.89234 0.50918,-0.80687 q 0.71918,-1.13965 0.95525,-1.73504 0.22779,-0.60063 0.27356,-1.28121 0.0521,-1.18841 -0.52254,-2.12095 -0.58298,-0.9378 -1.81405,-1.71467 z"
       id="path3417"
       style="fill:#ffffff" />
    <path
       id="path3402"
       style="color:#000000;isolation:auto;mix-blend-mode:normal;solid-color:#000000;fill:none;stroke:#000000;stroke-width:1.15110004;stroke-dashoffset:2;color-rendering:auto;image-rendering:auto;shape-rendering:auto"
       d="m 942.37,3.2 -22.928,355.97 c -3.0226,95.296 -28.845,201.09 -79.353,284.55 l -202.77,318.86 -636.43,24.63 287.48,-682.31 -5.9549,-43.921 -7.8982,-83.994 17.549,-134.38 610.34,-33.742 0.68248,-8.2468 z"
       inkscape:connector-curvature="0" />
  </g>
  <style
     type="text/css"
     id="style87">
        text{
          pointer-events:none;
          -webkit-user-select: none;
          -moz-user-select: none;
          -khtml-user-select: none;
          -ms-user-select: none;
        }
        .land{fill-opacity:1 !important;}
      </style>
  <pattern
     id="pattern_stripe"
     width="3"
     height="4"
     patternUnits="userSpaceOnUse"
     patternTransform="rotate(45)">
    <rect
       width="2"
       height="4"
       transform="translate(0,0)"
       fill="white"
       id="rect90" />
  </pattern>
</svg>
