<?xml version="1.0" encoding="UTF-8" standalone="no"?>
<!-- Created with Inkscape (http://www.inkscape.org/) -->

<svg
   xmlns:dc="http://purl.org/dc/elements/1.1/"
   xmlns:cc="http://creativecommons.org/ns#"
   xmlns:rdf="http://www.w3.org/1999/02/22-rdf-syntax-ns#"
   xmlns:svg="http://www.w3.org/2000/svg"
   xmlns="http://www.w3.org/2000/svg"
   xmlns:sodipodi="http://sodipodi.sourceforge.net/DTD/sodipodi-0.dtd"
   xmlns:inkscape="http://www.inkscape.org/namespaces/inkscape"
   id="svg2"
   height="1005.6"
   viewBox="0 0 521.13251 1005.5576"
   width="521.13"
   version="1.1"
   inkscape:version="0.91 r13725"
   sodipodi:docname="Morrison Pointe.svg">
  <defs
     id="defs49" />
  <sodipodi:namedview
     pagecolor="#ffffff"
     bordercolor="#666666"
     borderopacity="1"
     objecttolerance="10"
     gridtolerance="10"
     guidetolerance="10"
     inkscape:pageopacity="0"
     inkscape:pageshadow="2"
     inkscape:window-width="1920"
     inkscape:window-height="1009"
     id="namedview47"
     showgrid="false"
     inkscape:zoom="0.70710678"
     inkscape:cx="361.55047"
     inkscape:cy="485.43433"
     inkscape:window-x="1912"
     inkscape:window-y="-8"
     inkscape:window-maximized="1"
     inkscape:current-layer="svg2" />
  <metadata
     id="metadata8">
    <rdf:RDF>
      <cc:Work
         rdf:about="">
        <dc:format>image/svg+xml</dc:format>
        <dc:type
           rdf:resource="http://purl.org/dc/dcmitype/StillImage" />
        <dc:title></dc:title>
      </cc:Work>
    </rdf:RDF>
  </metadata>
  <g
     id="g3484">
    <path
       id="path3368-8"
       style="color:#000000;isolation:auto;mix-blend-mode:normal;solid-color:#000000;fill:#79a659;fill-rule:evenodd;color-rendering:auto;image-rendering:auto;shape-rendering:auto"
       d="m 112.91,617.98 c -5.1915,-3.6783 -11.623,-6.9506 -22.48,-3.9599 l -30.171,8.3113 c -53.634,13.21 -68.864,72.66 -55.541,108.53 l 25.315,82.996 c 14.111,50.838 48.258,93.186 100.54,127.85 20.73,14.92 43.137,24.438 66.778,29.982 l 165.51,33.677 37.744,-54.214 c 37.628,-49.143 60.422,-111.03 65.573,-188.08 l 8.4158,-181 1.2893,-47.8 -3.4784,-107.77 -12.05,-166.52 c -2.7811,-39.876 -0.049,-82.413 15.859,-131.31 l 6.4438,-18.338 c 9.5024,-24.026 21.921,-48.052 38.214,-72.078 l -73.68,-30.105 c -25.623,-10.38 -65.388,-14.636 -107.49,12.696 l -128.74,92.607 c -18.406,12.892 -36.481,26.529 -56.11,36.67 l -33.133,15.181 -12.76,4.7202 c -25.077,10.121 -36.917,27.785 -42.377,49.083 l -5.2468,25.446 -7.0059,20.714 22.383,16.074 c 19.414,21.561 12.568,53.302 -17.712,64.721 l -9.6445,78.551 2.1836,12.071 -0.97053,14.497 22.018,-1.3754 40.833,-3.6486 19.021,-7.8808 8.1432,-0.1971 9.2228,-2.5883 12.371,-0.5659 6.9146,1.0239 20.502,-9.436 12.267,-11.838 15.784,-6.9484 4.8896,0 -3.4313,8.7499 -6.7768,5.3185 -4.0318,6.1763 0.42893,9.865 -2.4019,8.4066 -6.4337,5.3185 -20.931,6.8626 -3.8602,4.6322 1.8014,5.4043 c 10.029,9.4089 21.483,15.966 32.383,23.633 l -26.46,-11.255 -10.971,-3.1712 -9.1254,-7.9832 -11.759,9.228 -6.4387,7.5536 -12.326,4.1647 -8.874,-0.022 6.3387,4.3672 1.936,11.211 3.118,4.4452 c -9.2053,4.4916 -18.378,6.7686 -27.784,8.094 -3.9653,0.5588 -7.9564,-0.4179 -11.481,-1.9135 l 23.166,65.264 0.79232,-0.2305 c 1.526,-0.3711 3.1202,-0.5677 4.7604,-0.5677 11.086,0 20.072,8.9866 20.072,20.072 0,11.086 -8.9867,20.072 -20.072,20.072 -4.0056,0 -7.7372,-1.1732 -10.87,-3.1949 z"
       inkscape:connector-curvature="0" />
    <path
       id="path4191"
       style="color:#000000;isolation:auto;mix-blend-mode:normal;solid-color:#000000;fill:#f5f5dc;fill-rule:evenodd;stroke:#000000;stroke-width:0.2;stroke-dashoffset:2;color-rendering:auto;image-rendering:auto;shape-rendering:auto"
       d="M 406.43,0.2 C 386.328,0.117 363.386,5.4966 339.706,20.871 l -5.3588,3.8543 46.856,64.566 -48.321,35.281 -47.203,-64.841 -74.723,53.744 c -18.406,12.892 -36.482,26.529 -56.111,36.67 l -33.133,15.181 -12.76,4.7204 c -25.077,10.121 -36.917,27.784 -42.377,49.082 l -5.2468,25.446 -7.0059,20.714 22.383,16.074 86.604,-5.5024 4.157,60.081 -38.31,1.9869 -41.571,-30.974 c 0.35299,8.5677 -2.2734,17.052 -7.7648,24.216 -4.7889,6.248 -11.756,11.492 -20.827,14.913 l -9.6445,78.551 2.1837,12.071 -0.97053,14.497 22.018,-1.3755 40.833,-3.6482 197.35,-216.32 159.87003,-82.288 c 1.6469,-6.1856 3.502,-12.472 5.5824,-18.866 l 6.4438,-18.339 c 9.5023,-24.026 21.921,-48.052 38.214,-72.078 l -73.687,-30.11 c -11.21,-4.5411 -25.127,-7.9105 -40.762,-7.975 z"
       inkscape:connector-curvature="0" />
    <path
       id="path4219"
       style="color:#000000;isolation:auto;mix-blend-mode:normal;solid-color:#000000;fill:#f5f5dc;fill-rule:evenodd;stroke:#000000;stroke-width:0.2;stroke-dashoffset:2;color-rendering:auto;image-rendering:auto;shape-rendering:auto"
       d="m 150.95,478.9 -6.4387,7.5536 -12.326,4.1647 -8.874,-0.022 6.3387,4.3672 1.936,11.211 3.118,4.4452 c -9.2053,4.4916 -18.378,6.7686 -27.784,8.094 -3.9653,0.5588 -7.9564,-0.4179 -11.481,-1.9135 l 23.166,65.264 0.79232,-0.2305 c 1.526,-0.3711 3.1202,-0.5677 4.7604,-0.5677 11.086,0 20.072,8.9866 20.072,20.072 0,11.086 -8.9867,20.072 -20.072,20.072 -4.0056,0 -7.7372,-1.1732 -10.87,-3.1949 l -0.38006,-0.2397 c -5.1915,-3.6783 -11.623,-6.9507 -22.48,-3.96 l -30.171,8.3113 c -53.634,13.202 -68.863,72.652 -55.54,108.53 l 25.315,82.996 c 14.111,50.838 48.258,93.186 100.54,127.85 20.73,14.92 43.137,24.438 66.778,29.982 l 165.51004,33.677 37.744,-54.214 c 37.628,-49.143 60.422,-111.03 65.573,-188.08 l 8.4158,-181 1.2893,-47.8 -163.93004,7.6277 -54.509,-27.055 -98.573,-21.247 z"
       inkscape:connector-curvature="0" />
    <path
       id="path3371"
       style="color:#000000;isolation:auto;mix-blend-mode:normal;solid-color:#000000;fill:#cccccc;fill-rule:evenodd;stroke:#000000;stroke-width:0.10000048;stroke-dashoffset:2;color-rendering:auto;image-rendering:auto;shape-rendering:auto;stroke-miterlimit:4;stroke-dasharray:none"
       d="m 304.61,760.27 c 1.5872,7.9968 6.0207,10.238 11.311,10.746 l 13.88,-0.28917 c 7.3779,-1.1886 14.932,-1.6382 21.186,-7.5478 7.4165,-6.4319 14.988,-14.854 20.584,-25.404 5.1937,-9.7924 9.6959,-19.433 12.336,-31.219 2.0164,-11.121 1.9973,-22.991 6.8145,-33.08 4.1814,-10.467 9.2881,-18.879 12.503,-31.495 0.36436,-3.221 -0.003,-6.7704 -6.8107,-6.5261 -13.271,0.1282 -26.999,-0.85383 -40.658,1.3474 -13.37,0.24574 -17.287,8.6619 -24.331,14.376 -7.2673,6.1019 -15.544,11.699 -23.401,17.506 -10.293,11.022 -12.604,21.004 -9.0186,29.702 3.4974,8.443 4.4573,15.393 5.184,22.206 0.19898,3.8607 0.11126,7.6736 -0.18668,11.451 -0.43778,9.7293 -0.79056,19.416 0.60966,28.226 z m -5.202,-39.178 c -0.8085,-8.4648 -2.7493,-16.859 -6.2082,-25.158 -2.5919,-12.639 3.7296,-22.657 13.02,-31.801 8.7138,-7.0071 17.668,-11.601 26.496,-20.745 2.5172,-7.2529 6.2449,-16.115 8.1734,-25.06 1.0309,-3.6504 2.0138,-7.2847 3.726,-11.162 2.7121,-4.6661 2.7219,-9.1271 -0.84687,-13.768 -2.6904,-3.4988 -6.055,-6.7967 -9.0358,-10.247 -2.2503,-2.6047 -3.899,-5.6224 -4.901,-8.8669 -0.94692,-3.066 -2.3695,-5.5737 -4.3385,-7.8491 l -6.6494,-5.7353 c -4.77,-4.6783 -8.7362,-9.8924 -12.788,-15.05 -3.336,-3.8112 -5.2396,-7.8238 -13.036,-11.411 -14.585,-6.9954 -26.223,-16.722 -45.097,-19.743 -13.795,-1.6055 -27.486,-4.9791 -41.166,-8.546 -11.947,-4.8272 -23.216,-10.639 -33.97,-13.114 -7.1285,-1.942 -14.781,0.39776 -22.609,4.1639 -6.7432,1.7257 -11.168,-0.60605 -12.94,-7.5802 l 3.1641,-0.98877 c 0.86659,4.8639 3.7178,7.1326 9.962,4.9643 6.6471,-2.9304 13.236,-5.6668 23.303,-3.549 6.3466,1.3352 12.405,3.8482 18.453,6.4438 5.366,2.6684 10.935,5.1001 17.001,6.9516 11.067,2.926 22.554,5.7908 39.15,7.9106 17.584,2.4777 31.798,13.042 47.266,20.596 6.196,2.8858 9.8142,8.0587 13.672,12.538 4.1393,5.306 8.1142,10.764 13.286,15.116 3.6654,3.5605 7.9296,5.6717 10.524,13.407 1.5677,4.6737 4.8601,9.3254 9.7211,14.085 8.8738,8.6888 8.2035,15.817 4.5921,22.198 -3.228,8.9524 -5.7382,20.076 -9.081,27.526 l 0.92779,0.82503 c 4.3538,-3.1073 9.4353,-4.5969 15.811,-5.3633 13.416,-1.6128 26.928,-1.4401 40.476,-1.2366 10.223,0.0264 18.441,-4.8351 26.856,-9.2179 4.5821,-2.4325 8.9289,-5.6884 13.181,-9.2761 4.6608,-4.8518 13.591,-10.373 18.358,-12.094 l 19.804,-7.1473 -0.19119,7.356 c -13.382,0.18396 -24.4,6.4479 -34.517,15.029 -4.579,4.373 -9.5051,7.473 -14.427,10.589 -7.1377,3.4056 -14.774,6.3608 -16.016,15.095 -2.1262,12.445 -9.0497,23.229 -13.878,34.738 -3.7925,10.623 -4.1906,21.246 -6.0724,31.869 -3.341,13.364 -7.7904,22.769 -13.326,32.936 -7.656,14.06 -15.897,21.46 -22.794,27.246 -5.22,5.2648 -13.4,6.1345 -21.253,7.4892 l -15.575,0.45688 c -9.0617,-0.55551 -12.115,-7.658 -17.223,-13.25 l -0.72109,-1.0436 1.7867,-2.4871 -7.6555,-6.1208 0.32533,-0.77358 -4.6998,-3.6354 -0.0534,-11.874 2.7582,3.0129 c 0.84816,0.99006 1.6054,1.1233 2.3183,0.0758 3.7159,-5.8358 8.1714,-11.457 6.9552,-18.724 z"
       inkscape:connector-curvature="0" />
    <path
       id="path3379"
       style="color:#000000;isolation:auto;mix-blend-mode:normal;solid-color:#000000;fill:#cccccc;fill-rule:evenodd;stroke:#000000;stroke-width:0.10000048;stroke-dashoffset:2;color-rendering:auto;image-rendering:auto;shape-rendering:auto;stroke-miterlimit:4;stroke-dasharray:none"
       d="m 286.29,758.92 3.8346,3.0512 -2.0325,2.4712 -4.0758,4.9555 -3.6976,-3.1415 z"
       inkscape:connector-curvature="0" />
    <path
       id="path3390"
       style="color:#000000;isolation:auto;mix-blend-mode:normal;solid-color:#000000;fill:#cccccc;fill-rule:evenodd;stroke:#000000;stroke-width:0.10000048;stroke-dashoffset:2;color-rendering:auto;image-rendering:auto;shape-rendering:auto;stroke-miterlimit:4;stroke-dasharray:none"
       d="m 282.65,763.37 3.6823,3.1851"
       inkscape:connector-curvature="0" />
    <path
       id="path3375"
       style="color:#000000;isolation:auto;mix-blend-mode:normal;solid-color:#000000;fill:#cccccc;fill-rule:evenodd;stroke:#000000;stroke-width:0.10000048;stroke-dashoffset:2;color-rendering:auto;image-rendering:auto;shape-rendering:auto;stroke-miterlimit:4;stroke-dasharray:none"
       d="m 280.32,766.25 -7.1129,-6.0431 -1.3623,1.7578 -7.9541,-6.46 c -3.7055,-4.6993 -4.1159,-9.794 2.5049,-15.732 l -1.3039,-12.86 12.554,-1.3983 0.31074,2.3927 3.4181,-0.34181 0.52826,4.2571 -0.63702,0.0777 0.0932,1.2274 1.3206,-0.21752 0.76683,7.9389 0.52734,-0.0659 0.43945,4.856 -0.21972,2.1313 2.3291,1.9995 -4.5703,5.6909 4.3392,3.4527 z"
       inkscape:connector-curvature="0" />
    <path
       id="path3415"
       style="color:#000000;isolation:auto;mix-blend-mode:normal;solid-color:#000000;fill:#cccccc;fill-rule:evenodd;stroke:#000000;stroke-width:0.10000048;stroke-dashoffset:2;color-rendering:auto;image-rendering:auto;shape-rendering:auto;stroke-miterlimit:4;stroke-dasharray:none"
       d="m 266.3,739.78 4.1794,-0.23305 0.76132,7.3179 -2.4393,0.23306 0.26028,2.4109 -1.4722,1.8237 1.4139,1.25 -3.5269,4.1484"
       inkscape:connector-curvature="0" />
    <path
       id="path4227"
       style="color:#000000;isolation:auto;mix-blend-mode:normal;solid-color:#000000;fill:#cccccc;fill-rule:evenodd;stroke:#000000;stroke-width:0.10000048;stroke-dashoffset:2;color-rendering:auto;image-rendering:auto;shape-rendering:auto;stroke-miterlimit:4;stroke-dasharray:none"
       d="m 283.08,737.02 4.3017,-0.28739 0.0534,11.874 4.6998,3.6354 -0.32533,0.77358 7.6555,6.1208 -1.7867,2.4871 0.44925,0.65978 -3.2006,3.8842 -0.68363,-0.55933 -1.9887,2.5791 -4.2352,-3.6478 2.1109,-2.5665 -8.1738,-6.5039 4.5703,-5.6909 -2.3291,-1.9995 0.21972,-2.1313 -0.43945,-4.856 -0.52734,0.0659 -0.37065,-3.8373 z"
       inkscape:connector-curvature="0" />
    <path
       id="OL_001_MP_MP_8"
       style="color:#000000;isolation:auto;mix-blend-mode:normal;solid-color:#000000;fill:#f5f5dc;fill-rule:evenodd;stroke:#000000;stroke-width:0.2;stroke-dashoffset:2;color-rendering:auto;image-rendering:auto;shape-rendering:auto"
       d="m 475.93,534.3 -3.4784,-107.77 -81.456,22.133 -67.472,22.687 -66.22,6.5855 -13.782,6.6204 -6.0735,8.915 -28.134,-1.3601 -26.46,-11.255 -10.971,-3.1712 -9.1254,-7.9832 -11.759,9.228 7.9145,14.695 98.573,21.247 54.509,27.055 z"
       inkscape:connector-curvature="0"
       class="land" />
    <path
       id="OL_001_MP_MP_7"
       style="color:#000000;isolation:auto;mix-blend-mode:normal;solid-color:#000000;fill:#f5f5dc;fill-rule:evenodd;stroke:#000000;stroke-width:0.2;stroke-dashoffset:2;color-rendering:auto;image-rendering:auto;shape-rendering:auto"
       d="m 472.43,426.5 -6.0743,-83.945 -111.58,23.256 -146.04,72.013 -2.4019,8.4066 -6.4337,5.3185 -20.931,6.8626 -3.8602,4.6322 1.8014,5.4043 c 10.029,9.4089 21.483,15.966 32.383,23.633 l 28.134,1.3601 6.0735,-8.915 13.782,-6.6204 66.22,-6.5855 67.472,-22.687 z"
       inkscape:connector-curvature="0"
       class="land" />
    <path
       id="OL_001_MP_MP_6"
       style="color:#000000;isolation:auto;mix-blend-mode:normal;solid-color:#000000;fill:#f5f5dc;fill-rule:evenodd;stroke:#000000;stroke-width:0.2;stroke-dashoffset:2;color-rendering:auto;image-rendering:auto;shape-rendering:auto"
       d="m 466.33,342.6 -5.9756,-82.578 -117.86,26.026 -180.33,148.91 6.9146,1.0239 20.502,-9.436 12.267,-11.838 15.784,-6.9484 4.8896,0 -3.4313,8.7499 -6.7768,5.3185 -4.0318,6.1763 0.42893,9.865 146.04,-72.013 z"
       inkscape:connector-curvature="0"
       class="land" />
    <path
       id="OL_001_MP_MP_5"
       style="color:#000000;isolation:auto;mix-blend-mode:normal;solid-color:#000000;fill:#f5f5dc;fill-rule:evenodd;stroke:#000000;stroke-width:0.2;stroke-dashoffset:2;color-rendering:auto;image-rendering:auto;shape-rendering:auto"
       d="m 460.33,260 c -2.4174,-34.661 -0.6692,-71.333 10.277,-112.44 l -159.87,82.289 -197.35,216.32 19.021,-7.8808 8.1432,-0.1971 9.2228,-2.5883 12.371,-0.5659 180.33,-148.91 z"
       inkscape:connector-curvature="0"
       class="land" />
    <path
       inkscape:connector-curvature="0"
       id="IL_001_MP_MP_8"
       d="m 391.5332,450.53711 c -22.34783,7.52149 -44.74341,15.05761 -67.11132,22.57812 -8.52102,1.12026 -17.09688,1.73899 -25.63823,2.67695 -13.67267,1.35964 -27.34535,2.71927 -41.01803,4.07891 -4.31184,2.07878 -8.62369,4.15756 -12.93554,6.23633 -2.13916,3.13878 -4.27961,6.27669 -6.41797,9.41602 -9.96798,-0.52323 -19.9404,-1.03774 -29.9043,-1.5918 -9.52711,-3.97517 -18.95183,-8.22228 -28.60249,-11.8788 -3.13022,-0.92542 -6.2868,-1.77947 -9.36821,-2.85557 -2.63151,-2.30209 -5.26302,-4.60417 -7.89453,-6.90625 -3.06055,2.39648 -6.1211,4.79296 -9.18164,7.18945 2.24088,4.14193 4.48177,8.28385 6.72265,12.42578 32.71582,7.07051 65.43426,14.13425 98.14844,21.20898 18.02865,8.94141 36.05729,17.88282 54.08594,26.82422 53.8125,-2.5039 107.625,-5.00781 161.4375,-7.51172 -1.10807,-34.44987 -2.21615,-68.89974 -3.32422,-103.34961 -26.33268,7.153 -52.66536,14.30599 -78.99805,21.45899 z"
       style="color:#000000;isolation:auto;mix-blend-mode:normal;solid-color:#000000;fill:#d3f6d4;fill-rule:evenodd;stroke:#000000;stroke-width:0.2;stroke-dashoffset:2;color-rendering:auto;image-rendering:auto;shape-rendering:auto"
       class="land" />
    <path
       sodipodi:nodetypes="cccccccccccccccc"
       inkscape:connector-curvature="0"
       id="IL_001_MP_MP_7"
       d="m 355.44727,367.64453 -145.10352,71.54883 c -0.87531,2.86297 -1.4665,5.84616 -2.78125,8.54883 -2.44595,1.92672 -4.74515,4.07666 -7.35477,5.77143 l -20.14523,6.61529 -2.74414,3.29101 c 0.65175,1.77603 0.90305,3.96018 2.62432,5.08121 9.18361,8.1212 19.69872,14.48838 29.73115,21.47543 l 26.73047,1.44922 c 2.03396,-2.92385 3.90622,-5.97648 6.22656,-8.68359 4.80605,-2.28237 9.6147,-4.56522 14.43555,-6.8125 l 65.95117,-6.54688 c 23.21307,-7.7807 46.39073,-15.67366 69.66956,-23.25363 l 77.64294,-21.10574 -5.80469,-80.09766 z"
       style="color:#000000;isolation:auto;mix-blend-mode:normal;solid-color:#000000;fill:#d3f6d4;fill-rule:evenodd;stroke:#000000;stroke-width:0.2;stroke-dashoffset:2;color-rendering:auto;image-rendering:auto;shape-rendering:auto"
       class="land" />
    <path
       inkscape:connector-curvature="0"
       id="IL_001_MP_MP_6"
       d="m 343.38477,287.82617 c -58.85026,48.60482 -117.70053,97.20964 -176.55079,145.81445 1.22863,0.30124 2.59969,0.25395 3.66405,-0.48999 5.98568,-2.75984 11.97137,-5.51969 17.95705,-8.27954 4.1997,-3.99827 8.39037,-8.01036 12.5957,-12 5.51779,-2.39374 11.00604,-4.87048 16.58984,-7.10156 2.59115,0 5.1823,0 7.77344,0 -1.64001,4.10591 -3.10317,8.29477 -5.08594,12.25 -2.41964,2.09107 -5.3296,3.71315 -7.2768,6.28472 -0.92075,1.41616 -1.84151,2.83232 -2.76226,4.24848 0.0911,2.0573 0.18229,4.11459 0.27344,6.17188 47.93792,-23.60541 95.87251,-47.2217 143.8125,-70.82031 36.62891,-7.63607 73.25781,-15.27214 109.88672,-22.90821 -1.90234,-26.1927 -3.80469,-52.38541 -5.70703,-78.57812 -38.38998,8.4694 -76.77995,16.9388 -115.16992,25.4082 z"
       style="color:#000000;isolation:auto;mix-blend-mode:normal;solid-color:#000000;fill:#d3f6d4;fill-rule:evenodd;stroke:#000000;stroke-width:0.2;stroke-dashoffset:2;color-rendering:auto;image-rendering:auto;shape-rendering:auto"
       class="land" />
    <path
       inkscape:connector-curvature="0"
       id="IL_001_MP_MP_5"
       d="m 312.0293,231.50391 c -63.74479,69.83268 -127.48959,139.66536 -191.23438,209.49804 3.84481,-1.56976 7.67667,-3.17852 11.55078,-4.66601 4.44341,-0.0722 9.00724,-0.0623 13.21342,-1.67703 2.70129,-0.83863 5.51637,-1.38069 8.3561,-1.298 2.49831,-0.11249 4.99662,-0.22498 7.49494,-0.33747 60.05997,-49.59886 120.1193,-99.19852 180.17968,-148.79688 38.88837,-8.60024 77.7774,-17.1977 116.66602,-25.79687 -2.09678,-32.73866 -0.12819,-65.84877 7.19147,-97.87071 0.67464,-3.09094 1.42903,-6.16356 2.17181,-9.23867 -51.86328,26.72787 -103.72656,53.45573 -155.58984,80.1836 z"
       style="color:#000000;isolation:auto;mix-blend-mode:normal;solid-color:#000000;fill:#d3f6d4;fill-rule:evenodd;stroke:#000000;stroke-width:0.2;stroke-dashoffset:2;color-rendering:auto;image-rendering:auto;shape-rendering:auto"
       class="land" />
    <path
       id="Star_IL_001_MP_MP_5"
       d="m 228.97,366.4 -7.5966,-2.5761 -6.4288,4.7975 0.10252,-8.0208 -6.5493,-4.6316 7.66,-2.3811 2.3811,-7.66 4.6316,6.5493 8.0209,-0.1025 -4.7975,6.4287 z"
       inkscape:connector-curvature="0"
       style="fill:#000080;fill-rule:evenodd"
       class="land" />
    <path
       id="Star_IL_001_MP_MP_6"
       d="m 265.69,395.6 -7.5966,-2.576 -6.4288,4.7974 0.10252,-8.0208 -6.5493,-4.6316 7.66,-2.3811 2.3811,-7.66 4.6316,6.5493 8.0209,-0.1025 -4.7975,6.4287 z"
       inkscape:connector-curvature="0"
       style="fill:#000080;fill-rule:evenodd"
       class="land" />
    <path
       id="Star_IL_001_MP_MP_7"
       d="m 251.97,458.4 -7.5966,-2.5761 -6.4288,4.7975 0.10252,-8.0209 -6.5493,-4.6316 7.66,-2.3811 2.3811,-7.66 4.6316,6.5493 8.0209,-0.1025 -4.7975,6.4287 z"
       inkscape:connector-curvature="0"
       style="fill:#000080;fill-rule:evenodd"
       class="land" />
    <path
       id="Star_IL_001_MP_MP_8"
       d="m 287.65,510.3 -7.5966,-2.5761 -6.4288,4.7975 0.10252,-8.0208 -6.5493,-4.6317 7.66,-2.381 2.3811,-7.66 4.6316,6.5493 8.0209,-0.1026 -4.7975,6.4288 z"
       inkscape:connector-curvature="0"
       style="fill:#000080;fill-rule:evenodd"
       class="land" />
    <path
       id="Cir_IL_001_MP_MP_5"
       d="m 428.23,230.4 c -1.5837,1.5836 -3.7746,2.7 -5.9866,3.0502 -2.2122,0.3503 -4.6408,-0.034 -6.6363,-1.0511 -1.9956,-1.0167 -3.7342,-2.7554 -4.7509,-4.7509 -1.017,-1.9955 -1.4016,-4.4243 -1.0511,-6.6363 0.3502,-2.2121 1.4666,-4.403 3.0502,-5.9866 1.5837,-1.5837 3.7746,-2.7001 5.9866,-3.0503 2.2121,-0.3504 4.6408,0.034 6.6362,1.0511 1.9956,1.0167 3.7344,2.7554 4.7511,4.751 1.0168,1.9955 1.4014,4.4242 1.0511,6.6361 -0.3503,2.2121 -1.4667,4.403 -3.0503,5.9868 z"
       inkscape:connector-curvature="0"
       style="fill:#ff0000;fill-rule:evenodd"
       class="land" />
    <path
       id="Cir_IL_001_MP_MP_6"
       d="m 435.13,313.8 c -1.5837,1.5835 -3.7745,2.7 -5.9865,3.0503 -2.2123,0.3503 -4.6408,-0.034 -6.6363,-1.0511 -1.9956,-1.0167 -3.7344,-2.7555 -4.7511,-4.751 -1.0169,-1.9955 -1.4015,-4.4242 -1.0511,-6.6363 0.3504,-2.2121 1.4668,-4.4029 3.0505,-5.9866 1.5836,-1.5836 3.7745,-2.7 5.9865,-3.0502 2.2121,-0.3504 4.6407,0.034 6.6363,1.0511 1.9955,1.0167 3.7341,2.7553 4.7509,4.7509 1.0169,1.9955 1.4014,4.4242 1.0511,6.6361 -0.3503,2.2121 -1.4667,4.403 -3.0503,5.9868 z"
       inkscape:connector-curvature="0"
       style="fill:#ff0000;fill-rule:evenodd"
       class="land" />
    <path
       id="Cir_IL_001_MP_MP_7"
       d="m 443.63,399 c -1.5835,1.5838 -3.7745,2.7 -5.9865,3.0505 -2.2121,0.3501 -4.6406,-0.034 -6.6363,-1.0511 -1.9955,-1.0168 -3.7342,-2.7556 -4.751,-4.751 -1.0167,-1.9956 -1.4013,-4.4243 -1.0511,-6.6363 0.3505,-2.2121 1.4667,-4.403 3.0505,-5.9866 1.5835,-1.5837 3.7745,-2.7 5.9866,-3.0503 2.212,-0.3504 4.6406,0.034 6.6361,1.0511 1.9956,1.0168 3.7343,2.7553 4.7511,4.7509 1.0168,1.9956 1.4014,4.4242 1.0511,6.6362 -0.3505,2.2121 -1.4667,4.403 -3.0505,5.9866 z"
       inkscape:connector-curvature="0"
       style="fill:#ff0000;fill-rule:evenodd"
       class="land" />
    <path
       id="Cir_IL_001_MP_MP_8"
       d="m 453.93,489.6 c -1.5836,1.5837 -3.7745,2.7 -5.9866,3.0504 -2.2121,0.3502 -4.6407,-0.034 -6.6362,-1.0511 -1.9955,-1.0168 -3.7343,-2.7554 -4.751,-4.7509 -1.0169,-1.9956 -1.4015,-4.4243 -1.0512,-6.6363 0.3504,-2.212 1.4667,-4.403 3.0504,-5.9866 1.5836,-1.5837 3.7746,-2.7 5.9867,-3.0504 2.212,-0.3503 4.6406,0.034 6.6362,1.0511 1.9955,1.0167 3.7342,2.7555 4.7509,4.751 1.0168,1.9956 1.4014,4.4242 1.0512,6.6362 -0.3504,2.2121 -1.4667,4.403 -3.0504,5.9866 z"
       inkscape:connector-curvature="0"
       style="fill:#ff0000;fill-rule:evenodd"
       class="land" />
    <text
       id="Txt_IL_001_MP_MP_5"
       style="font-size:22.50010872px;line-height:125%;font-family:sans-serif;letter-spacing:0px;word-spacing:0px;fill:#000000"
       xml:space="preserve"
       y="279.8667"
       x="303.96054"
       line-height="125%"
       sodipodi:linespacing="125%"><tspan
         style="font-size:22.50010872px"
         id="tspan4274"
         x="303.96054"
         y="279.8667">5</tspan></text>
    <text
       id="Txt_IL_001_MP_MP_6"
       style="font-size:22.50010872px;line-height:125%;font-family:sans-serif;letter-spacing:0px;word-spacing:0px;fill:#000000"
       xml:space="preserve"
       y="343.60712"
       x="329.58179"
       line-height="125%"
       sodipodi:linespacing="125%"><tspan
         style="font-size:22.50010872px"
         id="tspan4278"
         x="329.58179"
         y="343.60712">6</tspan></text>
    <text
       id="Txt_IL_001_MP_MP_7"
       style="font-size:22.50010872px;line-height:125%;font-family:sans-serif;letter-spacing:0px;word-spacing:0px;fill:#000000"
       xml:space="preserve"
       y="426.15063"
       x="327.86209"
       line-height="125%"
       sodipodi:linespacing="125%"><tspan
         style="font-size:22.50010872px"
         id="tspan4282"
         x="327.86209"
         y="426.15063">7</tspan></text>
    <text
       id="Txt_IL_001_MP_MP_8"
       style="font-size:22.50010872px;line-height:125%;font-family:sans-serif;letter-spacing:0px;word-spacing:0px;fill:#000000"
       xml:space="preserve"
       y="501.54388"
       x="353.34396"
       line-height="125%"
       sodipodi:linespacing="125%"><tspan
         style="font-size:22.50010872px"
         id="tspan4286"
         x="353.34396"
         y="501.54388">8</tspan></text>
    <path
       sodipodi:nodetypes="csccccccccccccccccccccccccccccccccccccccccccccccccccccccccccccccccssscc"
       id="path3368"
       style="color:#000000;isolation:auto;mix-blend-mode:normal;solid-color:#000000;fill:none;stroke:#000000;stroke-dashoffset:2;color-rendering:auto;image-rendering:auto;shape-rendering:auto;stroke-width:0.5000024;stroke-miterlimit:4;stroke-dasharray:none"
       d="m 112.91,618 c -5.1915,-3.6783 -11.623,-6.9506 -22.48,-3.9599 l -30.171,8.3113 c -53.634,13.202 -68.863,72.652 -55.54,108.53 l 25.315,82.996 c 14.111,50.838 48.258,93.186 100.54,127.85 20.73,14.92 43.137,24.438 66.778,29.982 l 165.51,33.677 37.744,-54.214 c 37.628,-49.143 60.422,-111.03 65.573,-188.08 l 8.4158,-181 1.68705,-47.71161 L 472.9682,426.61615 460.3557,260.0024 c -2.7811,-39.876 -0.049,-82.413 15.859,-131.31 l 6.4438,-18.338 c 9.5024,-24.026 21.921,-48.052 38.214,-72.078 l -73.687,-30.11 c -25.623,-10.38 -65.388,-14.636 -107.49,12.696 l -128.75,92.604 c -18.406,12.892 -36.481,26.529 -56.11,36.67 l -33.133,15.181 -12.76,4.7202 c -25.077,10.121 -36.917,27.785 -42.377,49.083 l -5.2468,25.446 -7.0059,20.714 22.383,16.074 c 19.414,21.561 12.568,53.302 -17.712,64.721 l -9.6445,78.551 2.1836,12.071 -0.97053,14.497 22.018,-1.3754 40.833,-3.6486 19.021,-7.8808 8.1432,-0.1971 9.2228,-2.5883 12.371,-0.5659 6.9146,1.0239 20.502,-9.436 12.267,-11.838 15.784,-6.9484 4.8896,0 -3.4313,8.7499 -6.7768,5.3185 -4.0318,6.1763 0.42893,9.865 -2.4019,8.4066 -6.4337,5.3185 -20.931,6.8626 -3.8602,4.6322 1.8014,5.4043 c 10.029,9.4089 21.483,15.966 32.383,23.633 l -26.46,-11.255 -10.971,-3.1712 -9.1254,-7.9832 -11.759,9.228 -6.4387,7.5536 -12.326,4.1647 -8.874,-0.022 6.3387,4.3672 1.936,11.211 3.118,4.4452 c -9.2053,4.4916 -18.378,6.7686 -27.784,8.094 -3.9653,0.5588 -7.9564,-0.4179 -11.481,-1.9135 l 23.166,65.264 0.79232,-0.2305 c 1.526,-0.3711 3.1202,-0.5677 4.7604,-0.5677 11.086,0 20.072,8.9866 20.072,20.072 0,11.086 -8.9867,20.072 -20.072,20.072 -4.0056,0 -7.7372,-1.1732 -10.87,-3.1949 z"
       inkscape:connector-curvature="0" />
  </g>
  <style
     type="text/css"
     id="style41">
        text{
          pointer-events:none;
          -webkit-user-select: none;
          -moz-user-select: none;
          -khtml-user-select: none;
          -ms-user-select: none;
        }
        .land{fill-opacity:1 !important;}
      </style>
  <pattern
     id="pattern_stripe"
     width="3"
     height="4"
     patternUnits="userSpaceOnUse"
     patternTransform="rotate(45)">
    <rect
       width="2"
       height="4"
       transform="translate(0,0)"
       fill="white"
       id="rect44" />
  </pattern>
</svg>
